<?xml version="1.0" encoding="UTF-8" standalone="no"?>
<svg version="1.1" viewBox="0 0 5000 9000" width="100%" xml:space="preserve" xmlns="http://www.w3.org/2000/svg">
        <path d="M5218.81 7969.43C5239.59 7990.21 5254.44 8012.47 5263.33 8036.21C5275.21 8059.97 5281.15 8085.2 5281.15 8111.91C5281.15 8141.6 5275.21 8168.31 5263.33 8192.05C5254.44 8215.79 5239.59 8236.57 5218.81 8254.38C5076.33 8399.83 4932.37 8545.29 4786.93 8690.73C4644.45 8833.21 4500.49 8977.17 4355.05 9122.61C4334.25 9143.39 4311.99 9158.24 4288.25 9167.13C4264.51 9176.05 4239.28 9180.5 4212.55 9180.5C4182.88 9180.5 4156.17 9176.05 4132.43 9167.13C4108.66 9158.24 4087.89 9143.39 4070.07 9122.61C3924.63 8977.17 3779.19 8833.21 3633.74 8690.73C3491.27 8545.29 3347.31 8399.83 3201.86 8254.38C3181.09 8236.57 3166.24 8215.79 3157.32 8192.05C3148.43 8168.31 3143.98 8141.6 3143.98 8111.91C3143.98 8085.2 3148.43 8059.97 3157.32 8036.21C3166.24 8012.47 3181.09 7990.21 3201.86 7969.43C3347.31 7826.95 3491.27 7682.99 3633.74 7537.55C3779.19 7392.1 3924.63 7248.14 4070.07 7105.67C4087.89 7084.89 4108.66 7070.04 4132.43 7061.13C4156.17 7049.26 4182.88 7043.31 4212.55 7043.31C4239.28 7043.31 4264.51 7049.26 4288.25 7061.13C4311.99 7070.04 4334.25 7084.89 4355.05 7105.67C4500.49 7248.14 4644.45 7392.1 4786.93 7537.55C4932.37 7682.99 5076.33 7826.95 5218.81 7969.43ZM4212.55 8788.69C4360.98 8640.26 4586.57 8414.67 4889.34 8111.91C4737.94 7963.5 4512.35 7737.91 4212.55 7435.14C4061.18 7586.52 3835.59 7812.1 3535.79 8111.91C3648.59 8224.71 3761.38 8337.49 3874.18 8450.3C3986.96 8563.08 4099.77 8675.89 4212.55 8788.69ZM1631.77 5371.67C1640.64 5392.38 1645.08 5411.61 1645.08 5429.36C1645.08 5435.27 1643.6 5439.71 1640.64 5442.66C1640.64 5466.35 1634.73 5490.01 1622.89 5513.67C1611.06 5537.34 1596.27 5556.57 1578.52 5571.37C1560.77 5586.16 1538.58 5597.99 1511.95 5606.87C1364.03 5654.2 1140.67 5726.67 841.863 5824.3C912.866 5918.98 982.388 6013.66 1050.43 6108.31C1118.48 6202.99 1188 6297.67 1259 6392.33C1273.8 6413.03 1284.15 6435.22 1290.07 6458.91C1293.03 6482.57 1293.03 6506.23 1290.07 6529.9C1287.11 6556.52 1279.71 6580.2 1267.88 6600.91C1253.09 6621.62 1235.34 6639.37 1214.63 6654.15C1208.71 6660.08 1201.32 6664.51 1192.44 6667.47C1183.56 6673.38 1174.69 6677.81 1165.81 6680.79C1153.98 6683.74 1143.62 6685.22 1134.75 6685.22C1125.87 6688.18 1117 6689.66 1108.12 6689.66C1093.33 6689.66 1078.54 6688.18 1063.75 6685.22C1051.91 6682.27 1038.6 6676.34 1023.81 6667.47C1009.02 6661.56 997.182 6654.15 988.305 6645.28C976.471 6636.4 966.117 6624.57 957.242 6609.78C865.531 6485.52 727.963 6296.19 544.539 6041.76C473.536 6136.43 404.012 6231.09 335.968 6325.77C267.923 6420.44 198.4 6515.1 127.397 6609.78C118.522 6624.57 109.646 6636.4 100.771 6645.28C88.9371 6654.15 77.1039 6661.56 65.2698 6667.47C50.4781 6676.34 35.6845 6682.27 20.8929 6685.22C9.05877 6688.18-4.25509 6689.66-19.0467 6689.66C-30.8808 6689.66-41.2352 6688.18-50.1097 6685.22C-58.9863 6685.22-67.8609 6683.74-76.7354 6680.79C-88.5695 6677.81-97.4461 6673.38-103.363 6667.47C-112.238 6664.51-121.112 6660.08-129.989 6654.15C-150.698 6639.37-166.969 6621.62-178.803 6600.91C-190.637 6580.2-199.512 6556.52-205.429 6529.9C-208.386 6506.23-206.909 6482.57-200.991 6458.91C-195.074 6435.22-184.72 6413.03-169.926 6392.33C-78.2152 6268.07 59.3527 6078.74 242.776 5824.3C130.355 5788.82 19.4131 5751.83-90.0493 5713.37C-202.471 5677.87-314.891 5642.36-427.313 5606.87C-474.647 5592.08-510.15 5561-533.816 5513.67C-548.61 5487.05-556.004 5458.94-556.004 5429.36C-556.004 5411.61-553.047 5392.38-547.13 5371.67C-529.379 5324.34-498.316 5288.83-453.939 5265.17C-406.604 5241.49-359.268 5237.05-311.934 5251.85C-164.011 5302.13 59.3527 5374.62 358.156 5469.3C358.156 5353.92 358.156 5237.05 358.156 5118.71C358.156 5000.39 358.156 4883.53 358.156 4768.14C358.156 4714.88 375.907 4670.51 411.408 4635C446.91 4599.52 491.287 4581.76 544.539 4581.76C594.833 4581.76 637.73 4599.52 673.232 4635C708.732 4670.51 726.483 4714.88 726.483 4768.14C726.483 4924.95 726.483 5158.65 726.483 5469.3C838.903 5433.79 951.325 5398.29 1063.75 5362.78C1176.17 5327.3 1288.59 5290.31 1401.01 5251.85C1424.68 5245.94 1448.35 5242.98 1472.01 5242.98C1495.68 5245.94 1519.35 5253.33 1543.02 5265.17C1563.72 5276.99 1582.95 5291.79 1600.7 5309.54C1615.5 5327.3 1625.85 5348.01 1631.77 5371.67ZM4371.27 2512.91C4278.36 2512.91 4192.29 2529.31 4113.04 2562.11C4033.78 2594.89 3961.36 2644.08 3895.78 2709.68C3830.19 2775.25 3781.01 2847.67 3748.21 2926.92C3715.42 3006.16 3699.02 3092.25 3699.02 3185.16C3699.02 3370.99 3764.61 3529.48 3895.78 3660.65C4026.96 3791.84 4185.44 3857.42 4371.27 3857.42C4557.1 3857.42 4715.61 3791.84 4846.78 3660.65C4977.95 3529.48 5043.52 3370.99 5043.52 3185.16C5043.52 2999.34 4977.95 2840.85 4846.78 2709.68C4715.61 2578.51 4557.1 2512.91 4371.27 2512.91ZM4371.27 2201.37C4371.27 2201.37 4371.27 2200.01 4371.27 2197.28C4507.92 2200.01 4633.61 2224.62 4748.4 2271.06C4865.9 2320.26 4972.49 2392.68 5068.13 2488.32C5163.77 2583.97 5236.19 2690.55 5285.37 2808.05C5334.57 2922.82 5359.16 3048.53 5359.16 3185.16C5359.16 3280.81 5345.51 3372.36 5318.17 3459.81C5293.58 3547.24 5258.05 3629.24 5211.59 3705.75C5124.15 3847.86 5006.63 3961.27 4859.06 4045.97C4711.51 4130.7 4548.91 4173.05 4371.27 4173.05C4275.63 4175.78 4184.08 4163.47 4096.64 4136.16C4009.19 4111.57 3927.22 4074.67 3850.68 4025.48C3711.32 3940.76 3597.92 3824.62 3510.46 3677.05C3425.76 3529.48 3383.39 3366.9 3383.39 3189.26C3383.39 3093.62 3395.69 3002.07 3420.28 2914.63C3447.62 2827.18 3484.51 2745.19 3530.96 2668.67C3618.41 2529.31 3735.91 2415.9 3883.48 2328.45C4031.05 2243.75 4193.65 2201.37 4371.27 2201.37ZM770.557-221.708C806.786-221.708 840.23-211.954 870.885-192.446C901.541-175.725 925.228-149.249 941.95-113.02C958.672-76.7906 975.393-40.5612 992.115-4.3319C1008.83 31.8975 1026.95 68.1268 1046.46 104.356C1096.62 84.8485 1173.26 58.373 1276.38 24.9296C1309.82 10.9958 1344.65 8.20983 1380.88 16.5697C1414.33 24.9296 1444.98 41.6513 1472.85 66.7329C1497.93 94.6024 1514.65 125.258 1523.01 158.701C1531.38 194.93 1528.59 229.766 1514.65 263.209C1503.51 302.225 1490.96 341.242 1477.03 380.257C1463.1 419.274 1449.16 456.896 1435.23 493.125C1485.39 518.207 1557.85 553.044 1652.6 597.633C1688.83 614.355 1715.31 638.043 1732.03 668.698C1751.54 699.355 1761.29 732.797 1761.29 769.026C1761.29 808.044 1751.54 842.879 1732.03 873.534C1715.31 901.404 1688.83 923.697 1652.6 940.419C1616.37 959.927 1580.14 978.042 1543.92 994.764C1507.69 1011.48 1471.46 1028.21 1435.23 1044.93C1454.73 1097.88 1481.21 1174.51 1514.65 1274.85C1528.59 1311.06 1531.38 1345.9 1523.01 1379.35C1514.65 1415.58 1497.93 1446.25 1472.85 1471.32C1444.98 1499.18 1414.33 1517.3 1380.88 1525.67C1344.65 1531.24 1309.82 1528.45 1276.38 1517.3C1237.36 1503.38 1198.34 1489.44 1159.33 1475.5C1120.31 1464.36 1082.69 1451.81 1046.46 1437.87C1021.38 1485.26 986.541 1557.7 941.95 1655.26C925.228 1688.69 901.541 1715.18 870.885 1734.68C840.23 1754.19 806.786 1763.94 770.557 1763.94C731.542 1763.94 696.704 1754.19 666.049 1734.68C638.181 1715.18 615.886 1688.69 599.164 1655.26C579.656 1619.03 561.541 1582.8 544.821 1546.57C528.099 1510.34 511.378 1474.11 494.656 1437.87C441.706 1454.6 365.067 1481.07 264.739 1517.3C228.51 1528.45 193.674 1531.24 160.231 1525.67C124.002 1517.3 93.3471 1499.18 68.2636 1471.32C40.396 1446.25 22.2804 1415.58 13.9205 1379.35C8.34664 1345.9 11.1345 1311.06 22.2804 1274.85C36.2161 1235.84 50.1499 1198.21 64.0837 1161.98C75.2314 1122.97 87.7732 1083.94 101.707 1044.93C54.3298 1022.63-18.1289 987.796-115.669 940.419C-149.112 923.697-175.588 901.404-195.096 873.534C-214.603 842.879-224.357 808.044-224.357 769.026C-224.357 732.797-214.603 699.355-195.096 668.698C-175.588 638.043-149.112 614.355-115.669 597.633C-79.4398 580.912-43.2104 564.192-6.98111 547.47C29.2483 530.749 65.4776 512.635 101.707 493.125C84.9853 442.962 58.5098 366.323 22.2804 263.209C11.1345 229.766 8.34664 194.93 13.9205 158.701C22.2804 125.258 40.396 94.6024 68.2636 66.7329C93.3471 41.6513 124.002 24.9296 160.231 16.5697C193.674 8.20983 228.51 10.9958 264.739 24.9296C303.756 36.0774 341.378 48.6191 377.608 62.5529C416.624 76.4886 455.64 90.4224 494.656 104.356C516.952 54.193 551.787-18.2657 599.164-113.02C615.886-149.249 638.181-175.725 666.049-192.446C696.704-211.954 731.542-221.708 770.557-221.708Z" fill="#171717" fill-rule="nonzero" opacity="1" stroke="none"/>
</svg>
