<svg width="131" height="97" viewBox="0 0 131 97" xmlns="http://www.w3.org/2000/svg">

<style>
  @media (prefers-color-scheme: dark) {
    svg { fill: #ffffff; }
  }
    @media (prefers-color-scheme: light) {
    svg { fill: #171717; }
  }
  svg {
    margin: 15px;
    min-width: 15%;
    height: auto;
  }
</style>

<path d="M106.747 55.6478C110.882 55.3297 114.222 58.0335 114.54 62.1686C114.858 66.4629 111.836 69.9619 107.701 70.28C103.725 70.598 100.226 67.5762 99.9077 63.6001C99.5897 59.3058 102.452 56.1249 106.747 55.6478Z"/>
<path d="M56.4878 89.5246C56.4878 85.3894 59.6687 82.2085 63.4858 82.2085C67.3029 82.2085 70.9609 85.7075 70.9609 89.6836C70.9609 93.5007 67.78 96.8407 64.122 96.9997C59.5097 96.9997 56.4878 94.1369 56.4878 89.5246Z"/>
<path d="M67.7806 43.0832C67.1445 43.4013 66.8264 42.9241 66.6673 42.447C60.7826 31.4729 62.5321 17.6359 72.8701 9.36556C75.5739 7.13892 80.6633 6.66179 82.8899 8.88842C83.8442 9.68365 84.0033 10.6379 84.1623 11.7512C84.4804 14.1369 84.9575 16.5226 86.548 18.4311C88.2975 20.4987 90.5241 21.294 93.0688 21.1349C95.2955 21.1349 97.5221 20.8168 98.9535 23.3616C99.7488 24.793 99.4307 30.3595 98.1583 31.4729C97.5221 31.95 97.045 31.6319 96.5678 31.4729C92.9098 30.0415 89.0927 30.0415 85.2756 30.6776C84.0033 30.8367 83.3671 30.5186 83.3671 29.0872C83.208 26.7015 82.7309 24.4749 81.4585 22.4073C79.0729 18.1131 74.6196 17.954 71.7568 21.9301C69.3711 25.111 68.7349 28.9281 68.0987 32.7452C67.4625 36.0852 67.6216 39.5842 67.7806 43.0832C67.7806 43.0832 67.6216 43.0832 67.7806 43.0832Z"/>
<path d="M71.7565 45.4688C71.4384 44.9917 71.5974 44.5145 72.0746 44.1964C81.1402 35.9261 94.659 34.3356 105.156 42.4469C107.86 44.6736 109.609 49.2859 108.178 51.9897C107.542 53.103 106.746 53.5801 105.792 53.8982C103.566 54.8525 101.498 55.8067 100.067 57.8743C98.6352 59.9419 98.3171 62.3276 98.9533 64.8723C99.4304 66.9399 100.226 69.1665 98.158 71.0751C97.0447 72.1884 91.6372 73.1427 90.2058 72.1884C89.5696 71.7113 89.7286 71.2341 89.8877 70.598C90.3648 66.6218 89.4105 62.9638 87.9791 59.4648C87.502 58.1924 87.661 57.5562 88.9334 57.2381C91.16 56.602 93.2276 55.4887 94.8181 53.8982C98.3171 50.5582 97.5218 46.264 92.9095 44.3555C89.2515 42.765 85.4344 43.0831 81.7763 43.4012C78.2774 43.5603 74.9374 44.5145 71.7565 45.4688Z"/>
<path d="M69.6892 49.604C70.1663 49.1269 70.4844 49.2859 70.9616 49.604C81.4585 55.9658 86.8661 68.5304 82.0947 80.7769C80.8224 83.9578 76.6872 87.1387 73.6653 86.3435C72.393 86.0254 71.7568 85.3892 71.1206 84.594C69.6892 82.6854 68.0987 80.9359 65.7131 80.1407C63.1683 79.3455 60.9417 79.8226 58.7151 81.095C56.8065 82.2083 54.898 83.6397 52.5123 82.2083C51.0809 81.4131 48.6952 76.4827 49.1723 74.8922C49.4904 74.256 50.1266 74.256 50.7628 74.256C54.7389 73.6198 57.9198 71.7113 60.9417 69.1666C61.896 68.3713 62.6912 68.3713 63.4864 69.4847C64.7588 71.3932 66.3492 72.9837 68.4168 74.097C72.552 76.4827 76.5281 74.4151 77.0053 69.6437C77.4824 65.6676 76.051 62.1686 74.7786 58.6696C73.3472 55.4887 71.5977 52.4668 69.6892 49.604Z"/>
<path d="M64.5996 50.5582C63.9634 53.7391 62.532 56.761 60.6235 59.4647C54.8978 68.0532 46.6275 71.5522 36.4486 70.5979C32.7905 70.2798 29.7687 67.258 29.4506 64.2361C29.2915 62.9637 29.6096 62.0095 30.4048 61.0552C31.5182 59.6238 32.4724 58.3514 32.9496 56.6019C33.9038 53.1029 32.6315 50.2401 30.0867 47.6954C26.5878 44.1964 27.0649 41.0155 31.2001 38.4708C31.6772 38.1527 32.3134 37.8346 32.9496 37.5165C33.9038 37.0394 34.6991 37.0394 35.0172 38.1527C36.4486 41.8107 39.3114 44.5145 42.4923 46.7411C43.6056 47.6954 43.6056 48.3316 42.6513 49.4449C40.7428 51.5125 39.6295 54.0572 39.4704 56.92C39.1523 60.419 41.2199 62.6457 44.7189 62.6457C46.9456 62.6457 49.0131 61.8504 50.9217 60.8962C55.8521 58.3514 59.6692 54.6934 63.3272 50.8763C63.8044 50.7172 63.9634 50.3992 64.5996 50.5582Z"/>
<path d="M38.5157 17.1586C38.8338 17.1586 39.629 17.3176 40.4242 17.4767C46.3089 18.59 49.9669 16.5224 51.8755 10.9558C53.1478 7.29778 55.8516 6.18446 59.3506 8.093C59.5097 8.093 59.5097 8.25205 59.6687 8.25205C63.3267 10.3196 63.3267 10.6377 61.1001 13.8186C59.1916 16.3634 58.2373 19.2262 57.7602 22.248C57.4421 23.9975 56.8059 24.3156 55.2154 23.6794C52.6707 22.7252 49.9669 22.7252 47.2632 23.6794C44.2413 24.6337 42.9689 27.3375 43.9232 30.3594C45.1956 34.3355 48.6946 36.085 51.7164 38.1526C54.7383 40.2202 58.2373 41.3335 61.5772 42.7649C62.0544 42.9239 62.8496 42.9239 62.6906 43.7192C62.5315 44.1963 61.8953 44.1963 61.2592 44.1963C54.1021 44.5144 47.2632 43.4011 41.6966 38.6297C36.4481 34.3355 32.631 29.087 33.2672 21.7709C33.7443 19.3852 35.4938 17.6357 38.5157 17.1586Z"/>
<path d="M25.4742 61.8506C21.6572 62.3277 17.8401 59.1468 17.522 55.1707C17.2039 51.3536 20.3848 47.5365 24.0428 47.2184C28.178 46.7413 31.9951 49.6041 32.3132 53.4212C32.4722 57.0792 30.0866 61.5325 25.4742 61.8506Z"/>
<path d="M92.2737 5.23044C96.2498 4.91235 100.067 8.09326 100.385 12.0694C100.703 15.8865 97.5222 19.5445 93.7051 19.8626C89.5699 20.1807 85.9119 17.1588 85.5938 13.1827C85.2757 9.20658 88.1385 5.54854 92.2737 5.23044Z"/>
<path d="M50.7623 8.25215C51.2394 12.3873 48.3766 15.8863 44.0823 16.5225C40.4243 16.9996 36.6072 13.9778 36.1301 10.4788C35.6529 5.86647 38.1977 2.52652 42.4919 2.04938C46.468 1.57224 50.2851 4.5941 50.7623 8.25215Z"/>
</svg>
