<svg width="131" height="96" viewBox="0 0 131 96" xmlns="http://www.w3.org/2000/svg">
<style>
  @media (prefers-color-scheme: dark) {
    svg { fill: #ffffff; }
  }
    @media (prefers-color-scheme: light) {
    svg { fill: #171717; }
  }
</style>
<path d="M37.1079 37.9754C37.0697 39.2853 37.2268 40.5935 37.5741 41.8572C37.9583 42.9252 38.4215 43.9632 38.9597 44.9626C39.1516 45.2598 39.2549 45.6053 39.2575 45.959C39.2315 46.2232 39.1443 46.4777 39.0027 46.7023C38.861 46.9269 38.669 47.1154 38.4417 47.2529L35.7222 49.0644C35.3928 49.3013 35.0011 49.4362 34.5956 49.4526C34.1047 49.4228 33.6427 49.2105 33.3006 48.8574C32.7172 48.2328 32.1967 47.5523 31.7466 46.8259C31.3064 46.0884 30.879 45.2732 30.4517 44.238C28.9288 46.1327 26.9923 47.6541 24.7904 48.6857C22.5885 49.7174 20.1795 50.232 17.7479 50.1901C16.1737 50.2733 14.5988 50.0414 13.1156 49.5082C11.6323 48.9749 10.2706 48.1509 9.11038 47.0847C8.03288 45.9979 7.19239 44.6998 6.64188 43.2723C6.09137 41.8448 5.84278 40.3188 5.91178 38.7906C5.84485 37.1118 6.15967 35.4398 6.83255 33.9001C7.50544 32.3604 8.51889 30.9932 9.79672 29.9012C12.805 27.5534 16.566 26.3805 20.3767 26.6017C21.9104 26.6154 23.4417 26.7278 24.9609 26.9381C26.5538 27.1581 28.1984 27.5074 29.9337 27.8956V24.6737C29.9337 21.4001 29.2344 19.1098 27.9006 17.7641C26.5667 16.4184 24.184 15.7844 20.8559 15.7844C19.2809 15.783 17.7115 15.9698 16.181 16.3408C14.5938 16.7207 13.0358 17.2136 11.519 17.8159C11.0261 18.0328 10.5201 18.2186 10.0039 18.3722C9.7825 18.4479 9.55137 18.4915 9.31758 18.5016C8.70894 18.5016 8.41109 18.0746 8.41109 17.2077V15.0468C8.36337 14.5241 8.46674 13.9987 8.70893 13.5329C9.04165 13.1437 9.45766 12.8341 9.92622 12.6272C11.6564 11.7684 13.482 11.117 15.3651 10.6863C17.5697 10.126 19.8373 9.85201 22.112 9.87109C27.2919 9.87109 31.0085 11.0356 33.4301 13.3647C35.8517 15.6938 37.0172 19.2392 37.0172 24.0138V37.9754H37.1079ZM19.5609 44.5356C21.0738 44.5191 22.574 44.2569 24.0027 43.7593C25.5896 43.2169 27.0055 42.2663 28.1078 41.0032C28.806 40.2106 29.3113 39.2673 29.584 38.2471C29.8787 37.0183 30.0223 35.7582 30.0114 34.4947V32.6832C27.3845 32.0317 24.689 31.6972 21.9825 31.6868C19.6902 31.4982 17.4031 32.1061 15.5076 33.4078C14.8017 34.017 14.2471 34.7818 13.8875 35.6419C13.5279 36.5019 13.3732 37.4336 13.4356 38.3636C13.3709 39.1955 13.479 40.0318 13.7531 40.8201C14.0272 41.6083 14.4614 42.3314 15.0284 42.9441C15.6357 43.5076 16.3528 43.9399 17.1349 44.2137C17.9171 44.4876 18.7474 44.5972 19.5738 44.5356H19.5609ZM54.2534 49.2067C53.6735 49.2705 53.0908 49.1134 52.6217 48.7668C52.1615 48.3048 51.8425 47.7213 51.7023 47.0847L41.5497 13.6623C41.3522 13.1017 41.2218 12.5197 41.1612 11.9284C41.1406 11.786 41.1529 11.6408 41.1971 11.5038C41.2413 11.3669 41.3162 11.2418 41.4162 11.1382C41.5161 11.0346 41.6384 10.9552 41.7738 10.906C41.9091 10.8568 42.0539 10.8392 42.1971 10.8545H46.4317C47.0266 10.7814 47.6273 10.9337 48.1152 11.2815C48.5532 11.7521 48.8534 12.334 48.9828 12.9636L56.2477 41.5466L62.9816 13.0154C63.0745 12.3817 63.3644 11.7932 63.8104 11.3332C64.3274 11.0186 64.9284 10.8696 65.5327 10.9062H68.9903C69.6011 10.8383 70.2162 10.9897 70.7256 11.3332C71.1728 11.7908 71.4591 12.3811 71.5414 13.0154L78.366 41.9478L85.851 13.0154C85.99 12.3918 86.2839 11.8133 86.7057 11.3332C87.213 11.0183 87.8059 10.869 88.4021 10.9062H92.4295C92.5751 10.8871 92.7233 10.9018 92.8624 10.949C93.0015 10.9962 93.1279 11.0747 93.2318 11.1785C93.3357 11.2824 93.4143 11.4086 93.4615 11.5476C93.5088 11.6866 93.5234 11.8346 93.5043 11.9802C93.4955 12.2147 93.4696 12.4482 93.4266 12.6789C93.3542 13.0452 93.2502 13.4045 93.1158 13.7529L82.756 47.1364C82.6257 47.7739 82.3104 48.359 81.8495 48.8186C81.3592 49.1287 80.7842 49.2779 80.2048 49.2456H76.4235C75.817 49.3103 75.207 49.1591 74.7012 48.8186C74.2499 48.3417 73.96 47.7351 73.8724 47.0847L67.1773 19.2392L60.5211 47.0459C60.4289 47.6885 60.1446 48.2884 59.7053 48.7668C59.1953 49.1098 58.582 49.2653 57.97 49.2067H54.2534ZM109.782 50.3713C107.545 50.374 105.315 50.1134 103.139 49.5949C101.411 49.2422 99.7386 48.659 98.1662 47.861C97.6279 47.5925 97.1783 47.1747 96.8712 46.6577C96.7051 46.2734 96.617 45.86 96.6123 45.4414V43.2417C96.6123 42.3359 96.9619 41.9478 97.6094 41.9478C97.8739 41.9465 98.1366 41.9903 98.3864 42.0772C98.6454 42.1548 99.0339 42.3359 99.4742 42.5042C101 43.1762 102.593 43.6837 104.227 44.0181C105.931 44.3663 107.667 44.5398 109.407 44.5356C111.601 44.6614 113.786 44.1682 115.713 43.1123C116.415 42.6863 116.992 42.0827 117.385 41.3624C117.779 40.6421 117.975 39.8308 117.954 39.0105C117.969 38.454 117.874 37.8999 117.674 37.3802C117.474 36.8605 117.173 36.3856 116.788 35.9827C115.524 34.912 114.031 34.146 112.424 33.7442L106.066 31.7774C103.355 31.0749 100.938 29.5298 99.1634 27.3651C97.7658 25.5758 97.0049 23.3722 97.0007 21.1025C96.9664 19.4325 97.3681 17.7825 98.1662 16.3149C98.938 14.9256 99.9976 13.7169 101.274 12.7695C102.623 11.753 104.146 10.9901 105.768 10.5181C107.539 10.0081 109.376 9.75963 111.22 9.78051C112.185 9.77204 113.15 9.82824 114.107 9.94872C115.105 10.0781 116.011 10.2593 116.918 10.4275C117.824 10.5957 118.601 10.8545 119.378 11.1133C120.011 11.3051 120.619 11.5699 121.191 11.9026C121.7 12.1549 122.144 12.5227 122.486 12.9765C122.766 13.3964 122.903 13.8959 122.874 14.3999V16.4313C122.874 17.3371 122.525 17.8159 121.877 17.8159C121.302 17.7464 120.744 17.5709 120.233 17.2983C117.62 16.1435 114.788 15.5696 111.932 15.6162C109.942 15.5009 107.958 15.9162 106.182 16.8195C105.518 17.2158 104.978 17.7886 104.621 18.4741C104.264 19.1596 104.105 19.9308 104.162 20.7013C104.151 21.2746 104.26 21.8439 104.483 22.3723C104.706 22.9006 105.038 23.3761 105.457 23.768C106.857 24.8817 108.477 25.6885 110.21 26.1359L116.348 28.0897C118.952 28.7508 121.289 30.1964 123.043 32.2303C124.356 33.9601 125.057 36.0762 125.037 38.2471C125.059 39.98 124.678 41.6943 123.923 43.2546C123.16 44.7372 122.081 46.0354 120.764 47.0588C119.336 48.1634 117.709 48.9847 115.972 49.4785C113.966 50.0888 111.879 50.3941 109.782 50.3842V50.3713Z"/>
<path d="M117.954 71.3589C103.735 81.8528 83.0798 87.4167 65.3256 87.4167C41.5988 87.5376 18.6806 78.8078 1.0557 62.9354C-0.239279 61.7191 0.926204 60.0888 2.53198 61.0333C22.1134 72.2118 44.2757 78.0902 66.8278 78.0874C83.6789 78.0028 100.348 74.5995 115.882 68.0723C118.264 66.9984 120.285 69.6251 117.954 71.3589Z"/>
<path d="M123.872 64.6175C122.059 62.2884 111.867 63.4918 107.244 64.0611C105.859 64.2293 105.639 63.026 106.895 62.1073C115.014 56.3622 128.365 58.0573 129.984 59.9593C131.603 61.8614 129.544 75.2407 121.942 81.6328C120.777 82.6291 119.65 82.1115 120.168 80.8046C121.839 76.5347 125.685 66.9078 123.872 64.6175Z"/>
</svg>
