<svg width="131" height="96" viewBox="0 0 131 96" xmlns="http://www.w3.org/2000/svg">
<style>
  @media (prefers-color-scheme: dark) {
    svg { fill: #ffffff; }
  }
    @media (prefers-color-scheme: light) {
    svg { fill: #171717; }
  }
  svg {
    margin: 15px;
    min-width: 15%;
    height: auto;
  }
</style>
<path d="M31.7175 14.4764H63.1941V45.9531H31.7175V14.4764ZM33.8075 43.8631H61.1041V16.5664H33.8075V43.8631Z"/>
<path d="M67.4058 14.4764H98.8824V45.9531H67.4058V14.4764ZM69.4958 43.8631H96.7924V16.5664H69.4958V43.8631Z"/>
<path d="M67.4058 50.1648H98.8824V81.6415H67.4058V50.1648ZM69.4958 79.5515H96.7924V52.2548H69.4958V79.5515Z"/>
<path d="M31.7175 50.1648H63.1941V81.6415H31.7175V50.1648ZM33.8075 79.5515H61.1041V52.2548H33.8075V79.5515Z"/>
<path d="M40.0616 70.3206L17.8 48.059L40.0616 25.7973L62.3391 48.059L40.0616 70.3206ZM20.7766 48.059L40.0616 67.3598L59.3625 48.059L40.0616 28.7581L20.7766 48.059ZM65.3 45.0981L43.0383 22.8206L65.3 0.55896L87.5616 22.8206L65.3 45.0981ZM45.9991 22.8206L65.3 42.1215L84.6008 22.8206L65.3 3.53563L45.9991 22.8206ZM90.5383 70.3206L68.2766 48.059L90.5383 25.7973L112.8 48.059L90.5383 70.3206ZM71.2375 48.059L90.5383 67.3598L109.823 48.059L90.5383 28.7581L71.2375 48.059ZM65.3 95.559L43.0383 73.2973L65.3 51.0356L87.5616 73.2973L65.3 95.559ZM45.9991 73.2973L65.3 92.5823L84.6008 73.2973L65.3 53.9965L45.9991 73.2973Z"/>
</svg>
