<svg width="131" height="96" viewBox="0 0 131 96" fill="none" xmlns="http://www.w3.org/2000/svg">
<path fill-rule="evenodd" clip-rule="evenodd" d="M72.9075 50.7506C71.3297 50.7506 73.2072 51.5898 75.2425 51.8906C75.8578 51.4314 76.2996 50.9723 76.8203 50.5923C75.5307 50.8804 74.2001 50.9341 72.8917 50.7506H72.9075Z" fill="black"/>
<path fill-rule="evenodd" clip-rule="evenodd" d="M81.3642 48.629C82.2921 47.4065 82.9143 45.9785 83.1787 44.4648C82.8953 45.5028 82.4649 46.4946 81.9007 47.4098C78.9503 49.2307 81.6009 46.2698 81.9007 45.1457C78.7452 49.1515 81.4431 47.5682 81.3642 48.629Z" fill="black"/>
<path fill-rule="evenodd" clip-rule="evenodd" d="M84.4724 40.5222C84.6144 37.7039 83.8571 38.6222 83.6362 39.6831C83.9359 39.8256 84.1568 41.6464 84.4724 40.5222Z" fill="black"/>
<path fill-rule="evenodd" clip-rule="evenodd" d="M66.9436 1.84143C67.8429 1.99976 68.758 2.07893 68.6791 2.3006C69.5784 2.07893 69.7362 1.9206 66.9436 1.84143Z" fill="black"/>
<path fill-rule="evenodd" clip-rule="evenodd" d="M68.6791 2.30054L68.0638 2.3797H68.6002L68.6791 2.30054Z" fill="black"/>
<path fill-rule="evenodd" clip-rule="evenodd" d="M94.7435 41.7257C94.8223 44.2274 93.9861 45.4465 93.1657 47.6474L91.8088 48.3282C90.7518 50.529 91.9509 49.6899 91.1304 51.4949C89.3949 53.0782 85.9081 56.3557 84.8194 56.6565C83.999 56.5774 85.3559 55.6749 85.5768 55.2949C83.2417 56.8782 83.6992 57.7174 80.1493 58.6199L80.0704 58.3982C71.2982 62.5624 59.1337 54.3765 59.2915 43.2299C59.2126 43.9107 59.0706 43.7682 58.834 43.9899C58.5993 41.1594 59.2283 38.3243 60.6373 35.861C62.0463 33.3978 64.1688 31.423 66.7227 30.199C69.0828 28.9892 71.7517 28.5218 74.3806 28.858C77.0096 29.1941 79.4764 30.3181 81.4588 32.0832C80.2136 30.4241 78.5885 29.0903 76.7211 28.1946C74.8537 27.2989 72.7988 26.8677 70.7302 26.9374C68.6038 26.9711 66.5231 27.5614 64.6939 28.65C62.8648 29.7386 61.3506 31.2878 60.3013 33.144C57.9662 34.7274 57.6664 38.9074 56.6094 39.7465C55.2367 49.9907 59.2442 54.4557 66.0758 59.6807C67.1329 60.3774 66.3756 60.5199 66.5334 61.0582C64.225 59.9484 62.1683 58.3748 60.4906 56.4349C61.3348 57.8107 62.4012 59.0361 63.6461 60.0607C61.453 59.3165 58.6604 54.9149 57.8242 54.6774C61.453 61.2799 72.7181 66.2832 78.5242 63.7815C75.4138 64.0121 72.2878 63.6522 69.3102 62.7207C68.0322 62.0399 66.2967 60.6782 66.5965 60.4407C74.6745 63.4015 82.9104 62.7207 89.8682 57.1157C91.6037 55.7382 93.5602 53.3949 94.0966 53.3949C93.2604 54.614 94.2386 53.9965 93.5602 54.9782C95.3746 52.1757 92.8028 53.854 95.3746 50.1332L96.3528 51.4157C95.9741 49.0724 99.3031 46.1907 98.9245 42.4699C99.6818 41.3299 99.7607 43.689 98.9245 46.3332C100.06 43.3882 99.2243 42.929 99.524 40.5065C99.8718 41.3509 100.177 42.2123 100.439 43.0874C99.6818 40.2057 101.118 38.3374 101.496 36.6432C101.118 36.4849 100.36 37.9257 100.202 34.5849C100.202 33.144 100.66 33.8249 100.739 33.4449C99.9555 32.4958 99.4575 31.3425 99.3031 30.1199C99.6029 29.5815 100.139 31.4024 100.581 31.4815C100.36 29.7399 99.8238 28.4415 99.8238 27.159C98.5458 24.4357 99.382 27.539 98.3249 26.019C96.8892 21.6965 99.4451 24.9582 99.6029 23.0582C101.388 26.0697 102.687 29.3454 103.453 32.764C103.053 30.3736 102.452 28.0218 101.654 25.734C102.254 26.0349 100.581 20.8732 102.474 24.2932C100.439 16.9307 93.9388 10.0432 87.9749 6.87653C88.7323 7.55737 89.5527 8.45987 89.3318 8.55487C86.3025 6.73404 86.839 6.5757 86.4603 5.89487C84.0463 4.9132 83.8886 5.97403 82.2319 5.89487C77.6722 3.51987 76.7572 3.7257 72.6077 2.22153L72.7497 3.13987C69.7362 2.07903 69.2786 3.51987 65.9496 3.13987C65.8076 2.98153 67.0067 2.5382 68.0638 2.37987C65.1292 2.75987 65.2712 1.84153 62.3997 2.5382C63.1025 2.05917 63.835 1.62551 64.5927 1.23987C62.2577 1.3982 58.9286 2.6807 59.8595 1.5407C56.0098 3.28237 49.1308 5.7207 45.2022 9.34653V8.5232C43.3721 10.6449 37.3924 14.9674 36.9664 17.6907L36.5089 17.849C35.6114 19.4074 34.8462 21.0387 34.2211 22.7257C33.0221 24.7682 32.4067 23.4857 32.6434 23.8657C30.7172 27.7919 29.1743 31.8961 28.0364 36.1207C28.7779 37.1815 28.0364 42.7074 28.3361 47.0299C27.1213 68.7215 43.4352 89.7799 61.2637 94.5299C64.4815 95.2976 67.7876 95.6278 71.0931 95.5115C67.1645 94.3715 66.7069 94.9099 62.8572 93.6115C60.1435 92.2974 59.5282 90.809 57.5718 89.2257L58.3922 90.5874C54.5425 89.2257 56.136 88.8457 53.0436 87.9274L53.8641 86.8032C52.2456 86.2422 50.8802 85.1191 50.0144 83.6365H48.7364C47.064 81.594 46.2436 80.1532 46.3067 79.0132L45.8649 79.8524C45.3285 79.0132 39.8852 72.2682 42.7094 73.8515C41.8773 73.3084 41.2025 72.5547 40.753 71.6665L41.3525 70.9857C40.1611 69.621 39.3071 67.9936 38.8597 66.2357C39.2738 66.8683 39.8836 67.3467 40.5952 67.5974C37.1715 59.0157 36.9664 67.059 34.3789 58.8574H34.8996C34.4968 58.1715 34.1334 57.4631 33.8109 56.7357L34.1423 54.3924C31.6494 51.5107 33.4007 42.1057 33.8109 36.9757C34.0476 34.9332 35.9409 32.669 37.2977 29.1699L36.4142 29.059C37.992 26.2565 45.6282 17.6749 49.1782 18.134C50.8506 16.0124 48.7995 18.134 48.4997 17.6115C52.2863 13.669 53.4065 14.7932 55.9782 14.1124C58.7077 12.529 53.6432 14.7299 54.9212 13.5107C59.6544 12.2915 58.2502 10.7874 64.3876 10.1699C64.9872 10.4865 62.8099 10.7082 62.3366 11.1674C66.2652 9.26737 74.7376 9.72653 80.3229 12.2915C86.7443 15.2524 93.923 24.1982 94.2228 32.5424L94.5226 32.6215C94.3806 35.9465 95.059 39.8257 93.8441 43.3882L94.7435 41.7257Z" fill="black"/>
<path fill-rule="evenodd" clip-rule="evenodd" d="M55.8994 52.9514L55.6628 54.0122C56.5052 55.5057 57.5692 56.8618 58.8183 58.0339C57.8401 56.2131 57.1616 55.4531 55.8837 52.9514H55.8994Z" fill="black"/>
<path fill-rule="evenodd" clip-rule="evenodd" d="M58.2503 52.809C57.7266 52.2068 57.3151 51.5149 57.0354 50.7665C57.4185 52.0041 57.9821 53.1779 58.7078 54.2498L58.2503 52.809Z" fill="black"/>
<path fill-rule="evenodd" clip-rule="evenodd" d="M101.307 43.4039L101.086 44.0056C100.714 47.0493 99.7946 49.9999 98.3723 52.7139C99.9407 49.83 100.937 46.6684 101.307 43.4039Z" fill="black"/>
<path fill-rule="evenodd" clip-rule="evenodd" d="M67.3223 1.09729C68.3793 0.717293 69.8782 0.859793 71.0142 0.55896C69.5784 0.717293 68.0638 0.780627 66.6281 0.93896L67.3223 1.09729Z" fill="black"/>
<path fill-rule="evenodd" clip-rule="evenodd" d="M30.0717 20.9524C30.2926 23.2324 28.3362 24.1191 30.5293 22.5357C31.6495 19.9549 30.0717 21.8549 30.0717 20.9524Z" fill="black"/>
<path fill-rule="evenodd" clip-rule="evenodd" d="M27.5789 31.4182C28.0364 29.8348 28.0995 28.9957 28.3362 28.1565C26.9635 29.8982 27.7209 30.2782 27.5789 31.4182Z" fill="black"/>
</svg>
