<svg width="131" height="96" viewBox="0 0 131 96" xmlns="http://www.w3.org/2000/svg">
<style>
  @media (prefers-color-scheme: dark) {
    svg { fill: #ffffff; }
  }
    @media (prefers-color-scheme: light) {
    svg { fill: #171717; }
  }
  svg {
    margin: 15px;
    min-width: 15%;
    height: auto;
  }
</style>
<path d="M64.5999 77.2081V95.5589C72.1346 95.5427 79.558 93.7403 86.2611 90.2995C92.9643 86.8587 98.7561 81.8776 103.161 75.765C107.567 69.6523 110.46 62.5822 111.603 55.1349C112.747 47.6875 112.109 40.0751 109.741 32.9223C107.533 25.8618 103.652 19.4392 98.4276 14.2014C93.2035 8.96354 86.7913 5.06545 79.7366 2.83894C72.5774 0.468807 64.9579 -0.168541 57.5044 0.979281C50.051 2.1271 42.9763 5.02733 36.8619 9.44158C30.7475 13.8558 25.7679 19.6581 22.3324 26.3714C18.8969 33.0848 17.1036 40.5176 17.0999 48.0589H35.4982C35.5126 43.3118 36.6824 38.6394 38.9066 34.4455C41.1308 30.2516 44.3425 26.6622 48.2644 23.9874C52.1863 21.3125 56.7003 19.6327 61.4167 19.0928C66.1332 18.553 70.9101 19.1694 75.3349 20.8889C79.1038 22.2656 82.5268 24.448 85.3654 27.2838C88.204 30.1196 90.3896 33.5406 91.7699 37.3081C93.4927 41.7338 94.1117 46.5124 93.5735 51.231C93.0352 55.9495 91.3559 60.466 88.6807 64.39C86.0054 68.314 82.4148 71.5274 78.2191 73.7524C74.0235 75.9775 69.349 77.1473 64.5999 77.1606V58.8731H46.2966V77.2081H64.5999ZM46.2966 91.2998H32.2049V77.2081H46.2966V91.2998ZM32.2207 77.2081H20.3932V65.4756H32.2207V77.2081Z"/>
</svg>
