<svg width="133" height="96" viewBox="0 0 133 96" xmlns="http://www.w3.org/2000/svg">
<style>
  @media (prefers-color-scheme: dark) {
    svg { fill: #ffffff; }
  }
    @media (prefers-color-scheme: light) {
    svg { fill: #171717; }
  }
  svg {
    margin: 15px;
    min-width: 15%;
    height: auto;
  }
</style>
<path d="M131.121 36.4848C130.758 36.1839 127.443 33.6506 120.34 33.6506C118.471 33.6629 116.607 33.8324 114.767 34.1573C114.278 31.2468 113.182 28.4728 111.55 26.017C109.918 23.5613 107.786 21.4792 105.296 19.9073L103.402 18.799L102.17 20.5723C100.626 23.0095 99.4905 25.6837 98.8079 28.4889C98.1569 30.9571 98.0172 33.5329 98.3973 36.0573C98.7774 38.5817 99.6693 41.0012 101.018 43.1664C97.9905 44.5495 94.7275 45.3395 91.4044 45.4939H4.50415C3.96191 45.4918 3.42466 45.5979 2.92368 45.806C2.42269 46.0141 1.96799 46.3201 1.58603 46.7062C1.20408 47.0922 0.902503 47.5506 0.698863 48.0547C0.495222 48.5588 0.393586 49.0984 0.399872 49.6423C0.274308 57.2859 1.55875 64.887 4.18844 72.0623C7.18772 79.9789 11.6551 85.7423 17.4169 89.3048C23.9048 93.2948 34.497 95.6381 46.431 95.6381C51.8315 95.6379 57.2208 95.1451 62.5324 94.1656C69.9358 92.8245 77.0571 90.2276 83.5905 86.4864C88.9728 83.3577 93.8134 79.3741 97.9239 74.6906C104.017 67.5195 108.766 59.3015 111.942 50.4339H113.173C115.878 50.5446 118.577 50.1082 121.11 49.1507C123.643 48.1932 125.958 46.7342 127.917 44.8606C129.625 43.2388 130.965 41.268 131.847 39.0814L132.384 37.4981L131.121 36.4848Z"/>
<path d="M12.5864 42.9923H24.2205C24.3579 42.9944 24.4943 42.9689 24.6217 42.9171C24.7491 42.8654 24.8648 42.7885 24.9619 42.691C25.0591 42.5935 25.1358 42.4775 25.1874 42.3497C25.239 42.222 25.2645 42.0851 25.2623 41.9473V31.5131C25.2645 31.3753 25.239 31.2385 25.1874 31.1107C25.1358 30.983 25.0591 30.8669 24.9619 30.7695C24.8648 30.672 24.7491 30.5951 24.6217 30.5433C24.4943 30.4916 24.3579 30.466 24.2205 30.4681H12.5864C12.449 30.466 12.3126 30.4916 12.1852 30.5433C12.0579 30.5951 11.9422 30.672 11.845 30.7695C11.7478 30.8669 11.6711 30.983 11.6195 31.1107C11.5679 31.2385 11.5424 31.3753 11.5446 31.5131V41.9473C11.5525 42.2219 11.6648 42.4831 11.8585 42.6774C12.0522 42.8717 12.3126 42.9843 12.5864 42.9923Z"/>
<path d="M28.6247 42.9923H40.2588C40.3962 42.9944 40.5326 42.9689 40.66 42.9171C40.7873 42.8654 40.903 42.7885 41.0002 42.691C41.0974 42.5935 41.1741 42.4775 41.2257 42.3497C41.2773 42.222 41.3028 42.0851 41.3006 41.9473V31.5131C41.3028 31.3753 41.2773 31.2385 41.2257 31.1107C41.1741 30.983 41.0974 30.8669 41.0002 30.7695C40.903 30.672 40.7873 30.5951 40.66 30.5433C40.5326 30.4916 40.3962 30.466 40.2588 30.4681H28.6247C28.4886 30.4681 28.3539 30.4953 28.2284 30.548C28.1028 30.6007 27.989 30.6779 27.8935 30.7752C27.798 30.8724 27.7228 30.9877 27.6722 31.1144C27.6215 31.2411 27.5965 31.3767 27.5986 31.5131V41.9473C27.6026 42.2205 27.7115 42.4816 27.9026 42.6763C28.0938 42.871 28.3524 42.9842 28.6247 42.9923Z"/>
<path d="M44.9787 42.9923H56.6128C56.7502 42.9944 56.8866 42.9689 57.014 42.9171C57.1413 42.8654 57.2571 42.7885 57.3542 42.691C57.4514 42.5935 57.5281 42.4775 57.5797 42.3497C57.6313 42.222 57.6568 42.0851 57.6546 41.9473V31.5131C57.6568 31.3753 57.6313 31.2385 57.5797 31.1107C57.5281 30.983 57.4514 30.8669 57.3542 30.7695C57.2571 30.672 57.1413 30.5951 57.014 30.5433C56.8866 30.4916 56.7502 30.466 56.6128 30.4681H44.9787C44.8413 30.466 44.7049 30.4916 44.5775 30.5433C44.4501 30.5951 44.3344 30.672 44.2373 30.7695C44.1401 30.8669 44.0634 30.983 44.0118 31.1107C43.9602 31.2385 43.9347 31.3753 43.9369 31.5131V41.9473C43.9301 42.0863 43.9524 42.2252 44.0024 42.3551C44.0523 42.485 44.1288 42.6029 44.227 42.7013C44.3251 42.7998 44.4427 42.8765 44.5721 42.9266C44.7016 42.9767 44.8401 42.9991 44.9787 42.9923Z"/>
<path d="M61.0801 42.9923H72.7142C72.8516 42.9944 72.988 42.9689 73.1154 42.9171C73.2427 42.8654 73.3584 42.7885 73.4556 42.691C73.5528 42.5935 73.6295 42.4775 73.6811 42.3497C73.7327 42.222 73.7582 42.0851 73.756 41.9473V31.5131C73.7582 31.3753 73.7327 31.2385 73.6811 31.1107C73.6295 30.983 73.5528 30.8669 73.4556 30.7695C73.3584 30.672 73.2427 30.5951 73.1154 30.5433C72.988 30.4916 72.8516 30.466 72.7142 30.4681H61.0801C60.9427 30.466 60.8063 30.4916 60.6789 30.5433C60.5516 30.5951 60.4359 30.672 60.3387 30.7695C60.2415 30.8669 60.1648 30.983 60.1132 31.1107C60.0616 31.2385 60.0361 31.3753 60.0383 31.5131V41.9473C60.0361 42.0851 60.0616 42.222 60.1132 42.3497C60.1648 42.4775 60.2415 42.5935 60.3387 42.691C60.4359 42.7885 60.5516 42.8654 60.6789 42.9171C60.8063 42.9689 60.9427 42.9944 61.0801 42.9923Z"/>
<path d="M28.6247 28.0772H40.2588C40.5326 28.0693 40.793 27.9566 40.9867 27.7623C41.1804 27.5681 41.2927 27.3069 41.3006 27.0322V16.5822C41.3028 16.4444 41.2773 16.3076 41.2257 16.1798C41.1741 16.0521 41.0974 15.936 41.0002 15.8385C40.903 15.7411 40.7873 15.6642 40.66 15.6124C40.5326 15.5607 40.3962 15.5351 40.2588 15.5372H28.6247C28.4886 15.5372 28.3539 15.5644 28.2284 15.6171C28.1028 15.6698 27.989 15.747 27.8935 15.8442C27.798 15.9415 27.7228 16.0568 27.6722 16.1835C27.6215 16.3102 27.5965 16.4458 27.5986 16.5822V27.0322C27.6134 27.3019 27.7257 27.5569 27.9147 27.7493C28.1036 27.9417 28.3561 28.0583 28.6247 28.0772Z"/>
<path d="M44.9787 28.0772H56.6127C56.8865 28.0693 57.147 27.9566 57.3406 27.7623C57.5343 27.5681 57.6467 27.3069 57.6546 27.0322V16.5822C57.6567 16.4444 57.6312 16.3076 57.5796 16.1798C57.528 16.0521 57.4514 15.936 57.3542 15.8385C57.257 15.7411 57.1413 15.6642 57.0139 15.6124C56.8866 15.5607 56.7501 15.5351 56.6127 15.5372H44.9787C44.8413 15.5351 44.7048 15.5607 44.5775 15.6124C44.4501 15.6642 44.3344 15.7411 44.2372 15.8385C44.1401 15.936 44.0634 16.0521 44.0118 16.1798C43.9602 16.3076 43.9347 16.4444 43.9368 16.5822V27.0322C43.9347 27.1701 43.9602 27.3069 44.0118 27.4347C44.0634 27.5624 44.1401 27.6785 44.2372 27.7759C44.3344 27.8734 44.4501 27.9503 44.5775 28.002C44.7048 28.0538 44.8413 28.0794 44.9787 28.0772Z"/>
<path d="M61.0801 28.0772H72.7142C72.988 28.0693 73.2484 27.9566 73.4421 27.7623C73.6358 27.5681 73.7481 27.3069 73.756 27.0322V16.5822C73.7481 16.3076 73.6358 16.0464 73.4421 15.8521C73.2484 15.6579 72.988 15.5452 72.7142 15.5372H61.0801C60.9427 15.5351 60.8063 15.5607 60.6789 15.6124C60.5516 15.6642 60.4359 15.7411 60.3387 15.8385C60.2415 15.936 60.1648 16.0521 60.1132 16.1798C60.0616 16.3076 60.0361 16.4444 60.0383 16.5822V27.0322C60.0462 27.3069 60.1585 27.5681 60.3522 27.7623C60.5459 27.9566 60.8063 28.0693 61.0801 28.0772Z"/>
<path d="M61.0801 13.0831H72.7142C72.8516 13.0852 72.988 13.0596 73.1154 13.0079C73.2427 12.9561 73.3584 12.8792 73.4556 12.7818C73.5528 12.6843 73.6295 12.5682 73.6811 12.4405C73.7327 12.3127 73.7582 12.1759 73.756 12.0381V1.6039C73.7481 1.32927 73.6358 1.06807 73.4421 0.873796C73.2484 0.679521 72.988 0.566866 72.7142 0.558901H61.0801C60.9427 0.556763 60.8063 0.582333 60.6789 0.634093C60.5516 0.685852 60.4359 0.762747 60.3387 0.860213C60.2415 0.957679 60.1648 1.07373 60.1132 1.20148C60.0616 1.32923 60.0361 1.46608 60.0383 1.6039V12.0381C60.0462 12.3127 60.1585 12.5739 60.3522 12.7682C60.5459 12.9624 60.8063 13.0751 61.0801 13.0831Z"/>
<path d="M77.3078 42.9923H88.9418C89.0793 42.9944 89.2157 42.9689 89.3431 42.9171C89.4704 42.8654 89.5861 42.7885 89.6833 42.691C89.7805 42.5935 89.8571 42.4775 89.9087 42.3497C89.9603 42.222 89.9858 42.0851 89.9837 41.9473V31.5131C89.9858 31.3753 89.9603 31.2385 89.9087 31.1107C89.8571 30.983 89.7805 30.8669 89.6833 30.7695C89.5861 30.672 89.4704 30.5951 89.3431 30.5433C89.2157 30.4916 89.0793 30.466 88.9418 30.4681H77.3078C77.1704 30.466 77.0339 30.4916 76.9066 30.5433C76.7792 30.5951 76.6635 30.672 76.5663 30.7695C76.4692 30.8669 76.3925 30.983 76.3409 31.1107C76.2893 31.2385 76.2638 31.3753 76.2659 31.5131V41.9473C76.2739 42.2219 76.3862 42.4831 76.5799 42.6774C76.7736 42.8717 77.034 42.9843 77.3078 42.9923Z"/>
</svg>
