<svg width="131" height="95" viewBox="0 0 131 95" xmlns="http://www.w3.org/2000/svg">
<style>
  @media (prefers-color-scheme: dark) {
    svg { fill: #ffffff; }
  }
    @media (prefers-color-scheme: light) {
    svg { fill: #171717; }
  }
  svg {
    margin: 15px;
    min-width: 15%;
    height: auto;
  }
</style>
<path fill-rule="evenodd" clip-rule="evenodd" d="M17.1089 47.4784C17.156 21.2468 38.7203 -0.000366211 65.3541 -0.000366211L65.3117 0.0421939C91.9691 0.0421939 113.557 21.2894 113.557 47.5209C113.557 73.7382 91.9973 94.9826 65.3588 94.9996H28.0677C22.0229 94.9996 17.1213 90.1808 17.1089 84.2318H17.0999V47.4784H17.1089ZM60.0682 32.4268C60.9884 25.1111 67.6349 19.5359 75.159 19.5359L75.1538 19.5499C83.2528 19.5499 90.8996 25.6552 90.8996 34.0775L90.8996 34.16C90.8997 34.9138 90.8999 35.6713 90.7745 36.5259C90.5501 38.7665 88.4704 40.3767 86.2056 40.0608C83.9408 39.7412 82.4037 37.6242 82.8225 35.4092C82.8609 35.1564 82.8748 34.7591 82.8748 34.0768C82.8748 29.3005 78.9054 27.4565 75.1528 27.4565C71.401 27.4565 68.0196 30.5622 68.0147 34.0768C68.0579 36.7851 68.0435 39.4796 68.0291 42.1769C68.0219 43.5266 68.0147 44.877 68.0147 46.2302L74.9784 46.1792C80.4154 46.0683 80.4765 54.1284 75.041 54.0906L68.0162 54.1419C68.0066 55.9632 68.0157 56.5861 68.0227 57.0654C68.0283 57.4464 68.0325 57.7366 68.025 58.4656C68.025 58.4656 68.084 62.4635 67.9628 65.4928C67.1223 74.3927 59.4255 81.505 50.177 81.505C40.3724 81.505 32.2969 73.6172 32.2969 63.9418C32.5913 53.9921 40.6504 46.1658 50.8036 46.2557L56.4667 46.2136V54.1109L50.8036 54.1622H50.7737C45.1954 54.3247 40.4131 58.0551 40.3235 63.937C40.3235 69.2949 44.7212 73.5888 50.1799 73.5888C55.631 73.5888 59.9939 69.6839 59.9939 63.9462L59.9851 34.0358C59.9887 33.4806 60.0064 33.0392 60.0682 32.4268Z"/>
</svg>
