<svg width="153" height="95" viewBox="0 0 153 95" xmlns="http://www.w3.org/2000/svg">
<style>
  @media (prefers-color-scheme: dark) {
    svg { fill: #ffffff; }
  }
    @media (prefers-color-scheme: light) {
    svg { fill: #171717; }
  }
  svg {
    margin: 15px;
    min-width: 15%;
    height: auto;
  }
</style>
<path fill-rule="evenodd" clip-rule="evenodd" d="M113.64 16.971C115.328 17.8668 116.679 19.3304 117.239 21.1299L125.781 57.8798C126.005 59.7913 125.557 61.7028 124.429 63.2784L100.716 92.6064C99.4842 94.2939 97.5727 95.1896 95.5492 94.9657H57.7915C55.8881 94.8537 53.9766 93.958 52.6249 92.6064L28.9114 63.2784C27.7837 61.7028 27.3359 59.7913 27.6718 57.8798L36.0935 20.9059C36.5493 18.9944 37.781 17.5308 39.4685 16.7471L73.7472 0.223573C74.6429 -0.000366211 75.6507 -0.000366211 76.5544 -0.000366211C77.4582 -0.000366211 78.4659 0.111603 79.3696 0.559481L113.64 16.971ZM111.785 55.4325C111.785 55.5445 111.897 55.5445 112.009 55.5445C113.016 55.7684 113.92 56.6722 114.016 57.8878C113.68 58.7916 112.776 59.4634 111.769 59.4634C111.545 59.4634 111.433 59.4634 111.209 59.3514C111.145 59.287 111.117 59.2597 111.084 59.248C111.06 59.2395 111.033 59.2395 110.985 59.2395C110.854 59.2395 110.761 59.201 110.684 59.1692C110.63 59.1467 110.583 59.1275 110.537 59.1275C110.197 59.0439 109.923 58.8979 109.62 58.7361C109.517 58.6812 109.411 58.6244 109.297 58.5676C109.073 58.5676 108.85 58.4557 108.626 58.3437H108.514C107.386 57.8958 106.154 57.5599 104.915 57.336H104.803C104.467 57.336 104.131 57.4479 103.907 57.6719C103.907 57.6719 103.907 57.7839 103.795 57.7839L102.899 57.6719C100.876 64.0781 96.4929 69.4687 90.7585 72.9557L91.0944 73.8515C91.0944 73.8515 90.9824 73.8515 90.9824 73.9634C90.7585 74.3074 90.7585 74.7552 90.8705 75.0911C91.3183 76.2188 91.8862 77.3465 92.67 78.3542V78.5782C92.8939 78.8021 93.0059 78.9141 93.1178 79.138C93.4538 79.4819 93.6777 79.8178 93.9016 80.2657C94.0136 80.3777 94.1256 80.4897 94.1256 80.6016C94.1256 80.6016 94.2375 80.6016 94.2375 80.7136C94.4615 81.2734 94.4615 81.8413 94.3495 82.4011C94.2375 82.969 93.7897 83.4169 93.3418 83.6408C93.2717 83.6642 93.2064 83.6875 93.144 83.7099C92.9075 83.7946 92.7118 83.8647 92.446 83.8647C91.5503 83.8647 90.7585 83.2969 90.3106 82.5131C90.1986 82.5131 90.1986 82.4011 90.1986 82.4011C90.1427 82.3451 90.1147 82.2892 90.0867 82.2332C90.0587 82.1772 90.0307 82.1212 89.9747 82.0652C89.7508 81.7213 89.6388 81.2734 89.5268 80.8256L89.3029 80.1537V80.0418C88.9802 78.851 88.4436 77.7709 87.9056 76.6881C87.8835 76.6437 87.8614 76.5992 87.8393 76.5547C87.6153 76.2188 87.2794 75.9949 86.9435 75.8829C86.9435 75.8269 86.9435 75.7989 86.9295 75.7849C86.9155 75.7709 86.8875 75.7709 86.8316 75.7709L86.3837 74.9872C86.0917 75.0741 85.7928 75.1686 85.4886 75.2647C84.6177 75.54 83.7034 75.8289 82.7847 75.9949C80.7612 76.5547 78.7378 76.7787 76.7143 76.7787C73.3472 76.7787 70.0841 76.2188 66.941 74.9792L66.4931 75.8749C66.4931 75.9309 66.4931 75.9589 66.4791 75.9729C66.4651 75.9869 66.4371 75.9869 66.3811 75.9869C66.0452 76.0989 65.7093 76.3228 65.4854 76.6587C64.9175 77.7864 64.3577 78.9061 64.0218 80.1458L63.7978 80.8176C63.7413 81.0479 63.6561 81.2476 63.5712 81.4466C63.4882 81.6415 63.4054 81.8357 63.35 82.0572C63.238 82.1692 63.126 82.2812 63.126 82.3931C63.0141 82.3931 63.0141 82.5051 63.0141 82.5051C62.5662 83.2969 61.7744 83.8567 60.8786 83.8567C60.6547 83.8567 60.3188 83.7448 60.0949 83.6328C59.0871 83.073 58.6393 81.7293 59.1991 80.6016C59.3111 80.6016 59.3111 80.4897 59.3111 80.4897C59.3671 80.4337 59.395 80.3777 59.423 80.3217C59.451 80.2657 59.479 80.2097 59.535 80.1537C59.679 79.9584 59.8024 79.7645 59.914 79.589C60.0629 79.3551 60.1908 79.154 60.3188 79.0261C60.5427 78.8021 60.6547 78.6901 60.7667 78.4662V78.3542C61.4385 77.3385 62.1183 76.2188 62.5662 75.0911C62.6782 74.7472 62.6782 74.2993 62.4542 73.9634C62.4542 73.9634 62.3422 73.9634 62.3422 73.8515L62.9021 73.0677C61.7824 72.5078 60.8786 71.828 59.8709 71.0442C55.4881 67.6772 52.345 63.0624 50.6574 57.8958L49.6497 58.0078C49.6497 58.0078 49.6497 57.8958 49.5377 57.8958C49.3138 57.6719 48.9779 57.5599 48.642 57.5599H48.53C47.1784 57.7839 46.0587 58.1198 44.819 58.5676H44.7071C44.4831 58.5676 44.2592 58.6796 44.0352 58.7916C43.903 58.8346 43.7553 58.8943 43.5982 58.9577C43.3468 59.0592 43.0712 59.1706 42.7956 59.2395C42.7617 59.2395 42.7072 59.2292 42.6478 59.218C42.511 59.1922 42.3477 59.1614 42.3477 59.2395C42.3477 59.2954 42.3477 59.3234 42.3337 59.3374C42.3197 59.3514 42.2917 59.3514 42.2357 59.3514C42.0118 59.4634 41.8998 59.4634 41.6759 59.4634C40.6682 59.5754 39.6524 58.8955 39.4285 57.8878C39.2046 56.6562 39.9883 55.5285 41.228 55.3045C41.2924 55.2401 41.3198 55.2128 41.3527 55.2012C41.377 55.1926 41.4044 55.1926 41.4519 55.1926C41.5831 55.1926 41.6759 55.1541 41.7527 55.1223C41.8071 55.0998 41.8534 55.0806 41.8998 55.0806C42.1288 55.0806 42.3557 55.0524 42.5816 55.0242C42.8056 54.9964 43.0285 54.9686 43.2515 54.9686C43.4754 54.8567 43.6993 54.8567 43.9233 54.8567C45.2749 54.7447 46.5066 54.5207 47.7462 54.1848C48.0821 53.9609 48.418 53.737 48.53 53.401C48.53 53.401 48.642 53.401 48.642 53.2891L49.5377 53.0651C48.53 46.6589 49.9856 40.1407 53.4727 34.6302C53.5287 34.5182 53.5846 34.4342 53.6406 34.3502C53.6966 34.2663 53.7526 34.1823 53.8086 34.0703L53.1586 33.4203C53.2097 33.0982 53.0053 32.7072 52.8008 32.5028C51.9051 31.607 50.7854 30.9272 49.6577 30.2554L48.9859 29.9195C48.53 29.6955 48.0821 29.4716 47.7462 29.2476C47.6343 29.2476 47.4103 29.0237 47.4103 29.0237C47.4103 29.0237 47.4103 28.9117 47.2983 28.9117C46.4026 28.128 46.1787 26.7763 46.8505 25.7686C47.1864 25.2087 47.7542 24.9848 48.426 24.9848C48.9939 24.9848 49.5537 25.2087 50.0016 25.5447L50.1136 25.6566C50.1696 25.7126 50.2255 25.7406 50.2815 25.7686C50.3375 25.7966 50.3935 25.8246 50.4495 25.8806C50.6174 26.0485 50.7574 26.2165 50.8974 26.3844C51.0373 26.5524 51.1773 26.7203 51.3452 26.8883C51.3791 26.9222 51.4233 26.9561 51.4715 26.9931C51.5826 27.0783 51.7151 27.18 51.7931 27.3362C52.5769 28.2319 53.5926 29.1357 54.6004 29.9195C54.8243 30.0314 55.0482 30.1434 55.2722 30.1434C55.4034 30.1434 55.4961 30.105 55.573 30.0731C55.6273 30.0506 55.6737 30.0314 55.72 30.0314H55.832L56.5038 30.4793C60.2068 26.5444 65.0455 23.7372 70.3241 22.6095C70.5281 22.5757 70.7294 22.5419 70.9284 22.5084C72.0477 22.3205 73.0945 22.1447 74.147 22.0496L74.259 21.1539V20.9299C74.5949 20.706 74.7069 20.3701 74.8188 20.0342C74.8188 18.6825 74.8188 17.4509 74.5949 16.2112V16.0992C74.5949 15.8753 74.5949 15.6514 74.4829 15.4274L74.4771 15.4038C74.3671 14.9561 74.259 14.5159 74.259 14.0758V13.5159C74.259 12.9481 74.4829 12.3882 74.9308 11.9404C75.4907 11.3805 76.1705 11.0446 76.8423 11.1566C77.97 11.2686 78.8657 12.3882 78.7538 13.5159V14.2038C78.698 14.4307 78.67 14.6556 78.6422 14.8795C78.6141 15.1055 78.5861 15.3304 78.5298 15.5554C78.5298 15.6674 78.5018 15.7793 78.4738 15.8913C78.4458 16.0033 78.4179 16.1152 78.4179 16.2272V16.3392C78.1939 17.6908 78.1939 18.9225 78.1939 20.1621C78.3059 20.498 78.4179 20.8339 78.7538 21.0579V20.9459L78.8657 21.8417C84.1523 22.4095 89.3189 24.425 93.4777 27.6881C93.9256 28.1359 94.4035 28.5858 94.8813 29.0357C95.3592 29.4855 95.8371 29.9354 96.285 30.3833L97.1807 29.8235H97.2927C97.4047 29.9355 97.6286 29.9355 97.7406 29.9355C97.9645 29.9355 98.1885 29.8235 98.4124 29.7115C99.4201 29.0397 100.436 28.136 101.22 27.2402C101.254 27.2063 101.298 27.1724 101.346 27.1354C101.457 27.0502 101.589 26.9485 101.668 26.7923C101.891 26.4564 102.227 26.1205 102.563 25.7846C102.675 25.7846 102.787 25.6726 102.899 25.5607L103.011 25.4487C103.459 25.1128 104.027 24.8888 104.587 24.8888C105.155 24.8888 105.826 25.2247 106.162 25.6726C106.954 26.6803 106.722 28.032 105.714 28.8158C105.714 28.8585 105.731 28.885 105.745 28.9075C105.767 28.9441 105.784 28.9705 105.714 29.0397C105.658 29.0957 105.602 29.1237 105.546 29.1517C105.49 29.1797 105.434 29.2077 105.378 29.2636C105.143 29.3795 104.939 29.4953 104.735 29.6111C104.545 29.7192 104.355 29.8273 104.139 29.9355L103.467 30.2714C102.347 30.9432 101.332 31.623 100.324 32.5188C100.1 32.7427 99.988 33.1906 99.988 33.5265V33.6384L99.3161 34.3103C101.116 37.1175 102.467 40.2606 103.251 43.5237C103.923 46.7869 104.147 50.1539 103.699 53.417L104.595 53.641C104.707 53.9769 105.043 54.3128 105.378 54.4248C106.618 54.7607 107.962 54.9846 109.201 55.0966H109.313C109.537 55.2086 109.761 55.2086 109.985 55.2086C110.441 55.2086 110.889 55.2086 111.337 55.3205C111.561 55.3205 111.785 55.3205 111.785 55.4325ZM53.1586 33.4203L53.1368 33.3985V33.5105C53.1465 33.4812 53.1537 33.4511 53.1586 33.4203ZM76.4984 53.521L79.5296 52.0574L80.3293 48.7943L78.1939 46.099H74.8188L72.6834 48.7943L73.4672 52.0574L76.4984 53.521ZM98.2924 51.8335C98.5164 49.4741 98.4044 47.1148 97.8446 44.7554C97.2847 42.3961 96.381 40.1487 95.1413 38.1252L86.7116 45.7711C86.4877 45.9951 86.3757 46.219 86.2637 46.5549C86.0398 47.5626 86.6076 48.5784 87.6153 48.8023L98.2924 51.8335ZM82.5607 40.4846L91.7742 33.9664C88.4071 30.5993 84.0243 28.4639 79.0817 27.904L79.7535 39.2529C79.7535 39.5888 79.8655 39.8128 80.0894 40.0367C80.6492 40.8205 81.7769 40.9325 82.5607 40.4846ZM73.6831 27.784L71.4358 28.2319C67.5008 29.1357 63.9018 31.1591 60.9906 33.9664L70.3161 40.5965C70.3862 40.6199 70.4514 40.6433 70.5138 40.6656C70.7503 40.7504 70.946 40.8205 71.2118 40.8205C72.2275 40.8205 73.1233 40.0287 73.1233 39.021L73.6831 27.784ZM66.0452 45.5392L57.7275 38.1252C55.2482 42.2841 54.1285 47.1148 54.4724 51.8255L65.3734 48.6823C65.8213 48.5704 66.0452 48.4584 66.2692 48.1225C66.941 47.3387 66.829 46.211 66.0452 45.5392ZM66.941 55.2086L55.816 57.12C57.3836 61.6148 60.5347 65.5497 64.4697 68.141L68.7405 57.7998C68.9644 57.4559 68.9644 57.0081 68.8525 56.6722C68.7405 55.7684 67.8367 55.2086 66.941 55.2086ZM76.4984 71.6121C78.1859 71.6121 79.7535 71.3881 81.3291 71.0522C82.071 70.8402 82.7127 70.7286 83.3625 70.6155C83.3991 70.6091 83.4358 70.6028 83.4725 70.5964L78.0739 60.815L78.0739 60.815C77.738 60.4791 77.5141 60.2552 77.1782 60.0312C76.3944 59.5834 75.4907 59.8073 74.9308 60.4791L69.4203 70.4844C71.6677 71.1642 74.139 71.6121 76.4984 71.6121ZM88.2952 68.0211C90.9904 66.3335 93.3498 63.9742 95.0373 61.2789C95.9331 60.0392 96.6129 58.5756 97.1647 57.0081L85.9278 55.0966C85.5919 55.0966 85.256 55.2086 84.9201 55.3205C84.1363 55.6564 83.6884 56.5602 83.9124 57.4559L88.2952 68.0211Z"/>
</svg>
