<svg width="131" height="95" viewBox="0 0 131 95" xmlns="http://www.w3.org/2000/svg">
<style>
  @media (prefers-color-scheme: dark) {
    svg { fill: #ffffff; }
  }
    @media (prefers-color-scheme: light) {
    svg { fill: #171717; }
  }
</style>
<path d="M107.127 22.2604C107.198 20.3396 108.003 18.5569 109.407 17.2493C110.813 15.9372 112.647 15.2594 114.571 15.3204C118.537 15.4621 121.652 18.8082 121.518 22.768C121.444 24.6888 120.639 26.4715 119.238 27.7751C117.832 29.0948 116.002 29.773 114.07 29.708C110.109 29.5622 106.997 26.2238 107.131 22.2604H107.127ZM126.364 29.3425C126.691 29.1265 126.931 28.9478 127.032 28.908L127.141 28.7379C126.864 26.9998 124.273 18.5735 122.315 16.5471C121.775 15.9949 121.342 15.4507 120.467 14.9386C113.373 10.8087 96.5535 8.31535 95.7654 8.20165L95.6313 8.2386L95.5809 8.36043C95.5809 8.36043 95.5159 11.8447 95.5062 12.2341C93.7881 11.657 81.299 7.625 69.5903 7.21891C59.6611 6.87008 45.2019 5.58644 26.0382 17.363L25.4715 17.7155C16.4564 23.3357 10.2323 30.2676 6.97813 38.3203C5.95758 40.8543 4.5852 46.572 5.94539 51.9527C6.53123 54.3043 7.62368 56.6673 9.09641 58.7831C12.4254 63.5627 18.01 66.7342 24.0268 67.2703C32.5178 68.0297 38.9491 64.2169 41.2364 57.0775C42.809 52.1517 41.2364 44.9233 35.2073 41.236C30.3037 38.2346 25.0303 38.9169 21.9711 40.9396C19.3173 42.6984 17.8149 45.4309 17.8393 48.4319C17.9007 53.7557 22.487 56.5861 25.7859 56.5942C26.7443 56.5942 27.7068 56.4278 28.7919 56.0745C29.1783 55.9567 29.5415 55.8109 29.9421 55.5632L30.0676 55.4897L30.1464 55.4369L30.12 55.4527C30.872 54.9407 31.3242 54.1078 31.3242 53.2148C31.3242 52.9711 31.2901 52.7242 31.2202 52.4757C30.8306 51.1275 29.498 50.3117 28.1171 50.563L27.9306 50.6073L27.6783 50.6845L27.3123 50.8103C26.5526 50.9971 25.9838 51.0134 25.8623 51.0175C25.476 50.9927 23.5771 50.4242 23.5771 48.3454V48.317C23.5771 47.5535 23.8834 47.0179 24.0524 46.7251C24.6431 45.7992 26.2605 44.8904 28.4442 45.0805C31.312 45.3286 33.3803 46.7986 34.7495 49.5718C36.0207 52.15 35.6879 55.322 33.8922 57.6448C32.1087 59.9469 28.9357 60.9252 24.7106 60.4708C20.4529 60.0001 16.8533 57.551 14.8382 53.7378C12.8654 50.0108 12.7577 45.5917 14.5599 42.1968C18.8704 34.0629 27.0121 34.1482 31.477 34.9198C38.0829 36.0653 45.5989 42.1562 48.264 49.1897C48.6946 50.3109 48.914 51.1994 49.1058 52.0124L49.3934 53.2266L56.8566 56.8688L56.9541 56.9423L57.1353 56.9256L57.1682 56.7108C57.1219 56.5439 57.0134 56.3904 56.8411 54.3027C56.6994 52.4501 56.4105 47.3789 58.9651 44.8652C59.9568 43.8829 61.4681 43.0062 62.6618 42.7256C67.5532 41.5313 73.2898 42.3552 78.7135 48.6301C81.5212 51.871 82.8899 53.3488 83.5765 54.0107L83.8162 54.2268L84.0981 54.4375C84.3232 54.5598 93.4261 58.7502 93.4261 58.7502L93.6134 58.7055L93.617 58.511C93.5565 58.4419 87.848 51.0674 88.8637 44.9964C89.6636 40.1599 93.5155 40.5985 98.8416 41.1995C100.58 41.4025 102.56 41.6299 104.611 41.6754C110.331 41.7116 116.494 40.6557 120.293 38.9948C122.75 37.9268 124.318 37.2162 125.302 36.3232C125.655 36.0304 125.838 35.5553 126.03 35.044L126.163 34.7066C126.322 34.2919 126.556 33.4188 126.658 32.9401C126.7 32.7293 126.724 32.5064 126.574 32.3882L126.048 32.4857C124.38 33.4891 120.21 35.3892 116.314 35.4704C111.475 35.5683 101.729 30.6055 100.713 30.0776L100.615 29.9643C100.376 29.3795 98.9127 25.9241 98.5999 25.1927C105.616 29.814 111.434 32.3683 115.891 32.7622C120.851 33.2036 124.715 30.4987 126.368 29.3421H126.368L126.364 29.3425ZM115.333 22.9264C114.102 22.9264 113.107 22.2604 113.107 21.4442C113.107 20.6202 114.102 19.9579 115.333 19.9579C116.565 19.9579 117.562 20.6202 117.562 21.4442C117.561 22.2604 116.564 22.9264 115.333 22.9264ZM114.512 17.4401C113.167 17.3918 111.892 17.8669 110.917 18.7806C109.942 19.6943 109.367 20.9321 109.327 22.2726C109.233 25.0425 111.403 27.373 114.169 27.4745C115.514 27.5152 116.795 27.04 117.776 26.1263C118.755 25.2082 119.318 23.9696 119.361 22.6344C119.454 19.8653 117.285 17.538 114.514 17.4405L114.512 17.4401Z"/>
<path d="M54.8399 63.8476C51.6775 63.8476 49.9403 66.5196 49.9403 68.3673V70.7389C49.9403 73.4597 52.1642 75.1449 54.2264 75.1449H61.4661C62.3782 75.1449 62.5692 75.7419 62.5692 76.2454V77.776C62.5692 77.9384 62.5363 79.4084 61.4661 79.4084H51.5938C50.6127 79.4084 49.9033 80.0907 49.9033 81.0247V81.4474C49.9033 82.3777 50.6127 83.0559 51.5938 83.0559H62.0024C64.7236 83.0559 66.4795 81.1635 66.4795 78.2316V75.6724C66.4795 72.9196 64.501 71.6891 62.5363 71.6891H55.4144C54.3418 71.6891 53.8559 70.8851 53.8559 70.3165V68.9034C53.8559 68.014 54.4511 67.4983 55.4911 67.4983H63.3768C64.3437 67.4983 65.0714 66.8039 65.0714 65.8857V65.4634C65.0714 64.542 64.3316 63.8468 63.3443 63.8468H54.8452L54.8399 63.8476Z"/>
<path d="M84.4163 63.8476C83.4815 63.8476 82.7282 64.607 82.7282 65.5414V77.6591C82.7282 78.63 81.936 79.4097 80.9768 79.4097H75.4759C74.5135 79.4097 73.7253 78.63 73.7253 77.6591V65.5414C73.7253 64.607 72.9656 63.8476 72.0316 63.8476H71.4994C70.5507 63.8476 69.8048 64.5957 69.8048 65.5414V78.118C69.8048 81.0458 72.11 83.1697 75.2854 83.1697H81.1682C84.3391 83.1697 86.6447 81.0462 86.6447 78.118V65.5414C86.6447 64.5957 85.9016 63.8476 84.9546 63.8476H84.4187H84.4163Z"/>
<path d="M94.9792 63.8476C91.8185 63.8476 90.0756 66.5196 90.0756 68.3673V70.7389C90.0756 73.4597 92.304 75.1449 94.3658 75.1449H101.601C102.515 75.1449 102.706 75.7419 102.706 76.2454V77.776C102.706 77.9384 102.674 79.4084 101.601 79.4084H91.725C90.7484 79.4084 90.0349 80.0907 90.0349 81.0247V81.4474C90.0349 82.3777 90.7484 83.0559 91.725 83.0559H102.138C104.86 83.0559 106.623 81.1635 106.623 78.2316V75.6724C106.623 72.9196 104.639 71.6891 102.674 71.6891H95.5521C94.4771 71.6891 93.9924 70.8851 93.9924 70.3165V68.9034C93.9924 68.014 94.5872 67.4983 95.6276 67.4983H103.517C104.482 67.4983 105.207 66.8039 105.207 65.8857V65.4634C105.207 64.542 104.468 63.8468 103.476 63.8468H94.9809L94.9792 63.8476Z"/>
<path d="M111.596 63.8476C110.657 63.8476 109.948 64.5428 109.948 65.4642V81.4478C109.948 82.3652 110.641 83.0559 111.559 83.0559H124.299C125.28 83.0559 125.989 82.3777 125.989 81.4478V81.0247C125.989 80.0907 125.28 79.4084 124.299 79.4084H113.862V75.3394H121.508C122.487 75.3394 123.199 74.6532 123.199 73.7228V73.3005C123.199 72.3661 122.487 71.6879 121.508 71.6879H113.862V67.4971H123.767C124.745 67.4971 125.457 66.8234 125.457 65.8845V65.4622C125.457 64.5278 124.745 63.8455 123.767 63.8455H111.591V63.8476H111.596Z"/>
<path d="M2.45275 80.01V74.5075C2.45275 73.8622 2.98293 73.3343 3.63134 73.3343H6.66941C7.3036 73.3343 7.84394 73.874 7.84394 74.5075V80.01C7.84394 80.6597 7.31782 81.1872 6.66941 81.1872H3.60858C2.95855 81.1872 2.45275 80.6711 2.45275 80.01ZM3.29657 71.4496C1.69953 71.4496 0.399872 72.6919 0.399872 74.2232V80.2496C0.399872 81.8053 1.65768 83.0723 3.19947 83.0723H7.09925C8.64104 83.0723 9.89885 81.8053 9.89885 80.2496V74.2232C9.89885 72.6927 8.59838 71.4496 7.00215 71.4496H3.29616H3.29657Z"/>
<path d="M14.8265 79.8922V74.6293C14.8265 73.902 15.3953 73.3343 16.1217 73.3343H18.9701C19.6973 73.3343 20.2653 73.9028 20.2653 74.6293V79.8922C20.2653 80.6065 19.6823 81.1868 18.9701 81.1868H16.1217C15.4087 81.1868 14.8265 80.6065 14.8265 79.8922ZM18.7275 71.3806C17.6034 71.3806 16.7555 71.7822 16.075 72.1112C15.6602 72.3101 15.3011 72.4815 15.0223 72.4815C14.8964 72.4815 14.7887 72.4247 14.7319 72.3313L14.4723 71.8358C14.4077 71.7055 14.1477 71.4505 13.8263 71.4505H13.4407C13.0702 71.4505 12.7737 71.783 12.7737 72.1887V87.4738C12.7737 87.953 13.1519 88.3307 13.6309 88.3307H13.9644C14.4398 88.3307 14.8257 87.949 14.8257 87.4738V82.4018C14.8257 82.2516 14.9236 82.0891 15.0223 82.0891C15.3011 82.0891 15.6602 82.2524 16.075 82.4424C16.7555 82.7551 17.6034 83.1405 18.7275 83.1405H19.0875C21.0782 83.1405 22.3169 82.003 22.3169 80.1761V74.3406C22.3169 72.5416 21.0518 71.3802 19.0875 71.3802H18.7275V71.3794V71.3806Z"/>
<path d="M27.242 74.4872C27.242 73.8411 27.7502 73.3343 28.397 73.3343H31.5293C32.1749 73.3343 32.6787 73.8411 32.6787 74.4872V76.3548H27.2428C27.2436 76.1111 27.2436 74.4872 27.2436 74.4872H27.242ZM28.085 71.4496C26.4879 71.4496 25.1919 72.6915 25.1919 74.2228V80.2045C25.1919 81.7557 26.4518 83.071 27.9383 83.071H31.9616C32.4593 83.071 32.8188 82.7267 32.8188 82.2585V81.9949C32.8188 81.5243 32.4593 81.1868 31.9616 81.1868H28.6562C27.7299 81.1868 27.2412 80.7316 27.2412 79.8662V78.1164H33.2052C34.1644 78.1164 34.7315 77.5316 34.7315 76.5408V74.222C34.7315 72.6915 33.4331 71.4484 31.843 71.4484H28.0858V71.4501L28.085 71.4496Z"/>
<path d="M43.0175 71.3805C41.8966 71.3805 41.0507 71.7822 40.3682 72.1078C39.9436 72.3072 39.5808 72.4814 39.2847 72.4814C39.1542 72.4814 39.1014 72.4652 39.0003 72.2902L38.7642 71.8597C38.6289 71.5876 38.399 71.4504 38.0882 71.4504H37.7567C37.3565 71.4504 37.0644 71.7623 37.0644 72.189V82.2153C37.0644 82.6901 37.4398 83.0718 37.9237 83.0718H38.2548C38.7301 83.0718 39.1177 82.686 39.1177 82.2153V74.6296C39.1177 73.919 39.6986 73.335 40.4096 73.335H43.2592C43.9722 73.335 44.5532 73.919 44.5532 74.6296V82.2153C44.5532 82.6901 44.9306 83.0718 45.4104 83.0718H45.7451C46.2205 83.0718 46.6064 82.686 46.6064 82.2153V74.3413C46.6064 72.5419 45.3409 71.3805 43.375 71.3805H43.0175Z"/>
<path d="M128.537 80.7164H128.741C128.975 80.7164 129.172 80.6324 129.172 80.4131C129.172 80.258 129.059 80.1024 128.741 80.1024C128.65 80.1024 128.586 80.1097 128.537 80.1175V80.7164ZM128.537 81.6971H128.255V79.9274C128.403 79.9059 128.544 79.8848 128.756 79.8848C129.025 79.8848 129.2 79.9408 129.306 80.0184C129.412 80.0955 129.469 80.2149 129.469 80.3855C129.469 80.6174 129.314 80.7587 129.123 80.8155V80.8305C129.279 80.8582 129.384 80.9991 129.42 81.2606C129.463 81.5363 129.504 81.6415 129.532 81.698H129.236C129.193 81.6415 129.151 81.4791 129.116 81.2464C129.074 81.0214 128.961 80.9357 128.735 80.9357H128.538V81.6971H128.537ZM128.834 79.4332C128.135 79.4332 127.564 80.0326 127.564 80.7733C127.564 81.5282 128.135 82.1203 128.841 82.1203C129.546 82.128 130.111 81.5282 130.111 80.7806C130.111 80.0326 129.546 79.4332 128.841 79.4332H128.834ZM128.841 79.1867C129.708 79.1867 130.4 79.8917 130.4 80.7741C130.4 81.6695 129.708 82.3672 128.834 82.3672C127.965 82.3672 127.26 81.6695 127.26 80.7741C127.26 79.8925 127.965 79.1867 128.834 79.1867H128.841Z"/>
</svg>
