<svg width="131" height="96" viewBox="0 0 131 96" xmlns="http://www.w3.org/2000/svg">
<style>
  @media (prefers-color-scheme: dark) {
    svg { fill: #ffffff; }
  }
    @media (prefers-color-scheme: light) {
    svg { fill: #171717; }
  }
</style>
<path d="M54.509 51.3847H62.7913L58.4168 44.3335L50.3844 57.0793L46.7233 57.0826L56.5006 41.7757C56.9153 41.1534 57.6316 40.7793 58.4109 40.7793C59.1802 40.7793 59.8858 41.1426 60.3024 41.7488L70.1135 57.0822L66.4508 57.0793L64.7328 54.2297H56.3394L54.509 51.3847ZM92.5092 54.2336V40.9382H89.4038V55.533C89.4038 55.9369 89.5679 56.3227 89.8552 56.6107C90.0048 56.7598 90.1824 56.878 90.3778 56.9584C90.5731 57.0389 90.7825 57.0799 90.9937 57.0793H105.147L106.973 54.2336H92.5092ZM41.1574 51.8533C44.1708 51.8533 46.6144 49.4093 46.6144 46.3959C46.6144 43.3819 44.1704 40.9382 41.1577 40.9382H27.5737V57.0793H30.6765V43.7836H40.9435C41.2867 43.7832 41.6266 43.8504 41.9437 43.9816C42.2608 44.1127 42.5489 44.3051 42.7916 44.5478C43.0342 44.7905 43.2266 45.0786 43.3577 45.3957C43.4888 45.7129 43.556 46.0528 43.5555 46.3959C43.5559 46.7391 43.4886 47.0791 43.3575 47.3963C43.2264 47.7134 43.0341 48.0017 42.7915 48.2445C42.5489 48.4872 42.2608 48.6798 41.9437 48.8111C41.6266 48.9425 41.2867 49.01 40.9435 49.0099L32.1965 49.007L41.4593 57.0793H45.9693L39.7361 51.851L41.1574 51.8533ZM8.4709 57.0793C4.01484 57.0796 0.399872 53.4676 0.399872 49.0099C0.399872 44.5522 4.01484 40.9385 8.4709 40.9385H17.853C22.31 40.9385 25.923 44.5522 25.923 49.0102C25.923 53.4692 22.31 57.0826 17.8533 57.0826L8.4709 57.0793ZM17.644 54.2352C20.531 54.2352 22.8687 51.8965 22.8687 49.0099C22.8687 46.1229 20.531 43.7839 17.644 43.7839H8.6789C5.79291 43.7839 3.45356 46.1229 3.45356 49.0099C3.45356 51.8965 5.79291 54.2352 8.6789 54.2352H17.644ZM76.5891 57.0793C72.1343 57.0793 68.5177 53.4676 68.5177 49.0096C68.5177 44.5519 72.1343 40.9382 76.5894 40.9382H87.7385L85.9111 43.7839H76.7984C73.9121 43.7839 71.5708 46.1229 71.5708 49.0099C71.5708 51.8965 73.9121 54.2352 76.7984 54.2352H87.9901L86.1662 57.0793H76.5891ZM114.559 54.2352C112.17 54.2352 110.15 52.6288 109.533 50.4379H122.801L124.628 47.5919L109.529 47.5906C110.146 45.3936 112.164 43.7839 114.558 43.7839H123.666L125.496 40.9382H114.345C109.89 40.9382 106.275 44.5519 106.275 49.0099C106.275 53.4676 109.89 57.0796 114.345 57.0796H123.923L125.748 54.2352H114.559ZM127.157 42.6568C127.157 42.4696 127.194 42.2842 127.266 42.1113C127.338 41.9384 127.443 41.7813 127.576 41.649C127.708 41.5168 127.865 41.4119 128.038 41.3404C128.211 41.2689 128.397 41.2322 128.584 41.2323C128.771 41.2322 128.956 41.2689 129.129 41.3404C129.302 41.412 129.459 41.5169 129.591 41.6492C129.724 41.7816 129.828 41.9387 129.9 42.1116C129.971 42.2845 130.008 42.4698 130.008 42.6568C130.008 42.8442 129.972 43.0298 129.901 43.2031C129.829 43.3764 129.725 43.5339 129.592 43.6666C129.46 43.7993 129.303 43.9046 129.13 43.9765C128.957 44.0483 128.771 44.0852 128.584 44.0852C128.397 44.0853 128.211 44.0484 128.038 43.9766C127.864 43.9048 127.707 43.7996 127.574 43.6669C127.442 43.5342 127.337 43.3767 127.265 43.2034C127.194 43.0301 127.157 42.8443 127.157 42.6568ZM128.584 44.4775C129.586 44.4775 130.4 43.665 130.4 42.664C130.4 42.4256 130.353 42.1895 130.262 41.9693C130.17 41.7491 130.037 41.549 129.868 41.3805C129.7 41.212 129.499 41.0783 129.279 40.9871C129.059 40.896 128.823 40.8491 128.584 40.8492C128.103 40.8492 127.642 41.0403 127.302 41.3805C126.961 41.7207 126.77 42.1822 126.77 42.6633C126.77 43.1445 126.961 43.6059 127.302 43.9461C127.642 44.2863 128.103 44.4775 128.584 44.4775ZM128.412 41.5863C128.693 41.5863 128.807 41.5889 128.944 41.6409C129.302 41.7611 129.34 42.0903 129.34 42.2109C129.34 42.2359 129.335 42.3052 129.317 42.378C129.297 42.4543 129.252 42.6103 129.066 42.7267C129.044 42.742 129.032 42.753 128.974 42.7741L129.446 43.6195H128.99L128.575 42.8421H128.3V43.6195H127.902V41.5863H128.412ZM128.555 42.5057C128.677 42.5028 128.813 42.4933 128.892 42.378C128.925 42.3259 128.942 42.2647 128.939 42.2028C128.94 42.1514 128.926 42.1008 128.899 42.0571C128.871 42.0134 128.832 41.9786 128.786 41.9568C128.694 41.921 128.602 41.921 128.412 41.921H128.3V42.5057H128.555Z"/>
</svg>
