<svg width="131" height="95" viewBox="0 0 131 95" fill="none" xmlns="http://www.w3.org/2000/svg">
<path d="M41.3856 8.83064C50.5504 13.4858 55.8602 17.2439 58.7697 20.4443C57.2665 26.336 49.4836 26.6027 46.6469 26.433C47.2288 26.1663 47.7137 25.8511 47.8834 25.3419C47.1803 24.8328 44.6345 25.2934 42.8645 24.2994C43.5434 24.1539 43.8586 24.0327 44.1738 23.5235C42.5009 22.9901 40.7067 22.5537 39.6399 21.6808C40.2218 21.6808 40.7552 21.8021 41.4825 21.2929C39.9793 20.4928 38.3791 19.8624 37.1426 18.6501C37.9184 18.6259 38.7428 18.6501 38.9852 18.3592C37.6032 17.5348 36.4637 16.5892 35.4939 15.5709C36.5849 15.6922 37.0456 15.5952 37.288 15.4012C36.2455 14.3586 34.9362 13.4616 34.3058 12.1765C35.1059 12.4432 35.8576 12.5645 36.3667 12.1523C36.003 11.3764 34.4998 10.9158 33.627 9.0731C34.4756 9.14584 35.3726 9.24282 35.5424 9.0731C35.1544 7.49713 34.4755 6.60004 33.8209 5.67871C35.6393 5.65446 38.3791 5.67871 38.2579 5.53323L37.1426 4.39369C38.9125 3.93302 40.7309 4.46643 42.0402 4.8786C42.6221 4.41794 42.0402 3.83604 41.3128 3.25414C42.8161 3.44811 44.1738 3.78755 45.4103 4.27246C46.065 3.69057 44.9739 3.10867 44.4648 2.52678C46.7923 2.9632 47.7622 3.56934 48.7562 4.17548C49.4594 3.4966 48.8047 2.93895 48.3198 2.35706C50.0655 2.98744 50.9868 3.81179 51.9324 4.63615C52.2476 4.19972 52.7568 3.88453 52.1506 2.86621C53.3872 3.56934 54.3327 4.39369 55.0359 5.33927C55.8117 4.85436 55.4965 4.19972 55.4965 3.59358C56.7815 4.63615 57.6059 5.7272 58.6242 6.81825C58.8182 6.67278 59.0121 6.18787 59.1576 5.41201C62.2368 8.36997 66.601 15.7891 60.2729 18.7229C54.9389 14.3829 48.5138 11.2067 41.3856 8.83064Z" fill="black"/>
<path d="M89.9738 8.83064C80.809 13.4858 75.4992 17.2439 72.5897 20.4443C74.0929 26.336 81.8758 26.6027 84.7125 26.433C84.1306 26.1663 83.6457 25.8511 83.476 25.3419C84.1791 24.8328 86.7249 25.2934 88.4949 24.2994C87.816 24.1539 87.5008 24.0327 87.1856 23.5235C88.8585 22.9901 90.6527 22.5537 91.7195 21.6808C91.1376 21.6808 90.6042 21.8021 89.8769 21.2929C91.3801 20.4928 92.9803 19.8624 94.2168 18.6501C93.441 18.6259 92.6166 18.6501 92.3742 18.3592C93.7562 17.5348 94.8957 16.5892 95.8655 15.5709C94.7745 15.6922 94.3138 15.5952 94.0714 15.4012C95.1139 14.3586 96.4232 13.4616 97.0536 12.1765C96.2535 12.4432 95.5018 12.5645 94.9927 12.1523C95.3564 11.3764 96.8596 10.9158 97.7324 9.0731C96.8838 9.14584 95.9868 9.24282 95.817 9.0731C96.205 7.49713 96.8838 6.60004 97.5385 5.67871C95.7201 5.65446 92.9803 5.67871 93.1015 5.53323L94.2168 4.39369C92.4469 3.93302 90.6285 4.46643 89.3192 4.8786C88.7373 4.41794 89.3192 3.83604 90.0466 3.25414C88.5433 3.44811 87.1856 3.78755 85.9491 4.27246C85.2944 3.69057 86.3855 3.10867 86.8946 2.52678C84.5671 2.9632 83.5972 3.56934 82.6032 4.17548C81.9 3.4966 82.5547 2.93895 83.0396 2.35706C81.2939 2.98744 80.3726 3.81179 79.427 4.63615C79.1118 4.19972 78.6026 3.88453 79.2088 2.86621C77.9722 3.56934 77.0267 4.39369 76.3235 5.33927C75.5477 4.85436 75.8629 4.19972 75.8629 3.59358C74.5779 4.63615 73.7535 5.7272 72.7352 6.81825C72.5412 6.67278 72.3473 6.18787 72.2018 5.41201C69.1226 8.36997 64.7584 15.7891 71.0865 18.7229C76.4205 14.3829 82.8456 11.2067 89.9738 8.83064Z" fill="black"/>
<path d="M77.2449 68.8629C77.2691 74.3667 72.3958 78.8521 66.3343 78.8764C60.2729 78.9006 55.3511 74.4637 55.3026 68.9599C55.3026 68.9357 55.3026 68.8872 55.3026 68.8629C55.2783 63.3592 60.1517 58.8737 66.2131 58.8495C72.2745 58.8252 77.1964 63.2622 77.2449 68.7659C77.2449 68.7902 77.2449 68.8144 77.2449 68.8629Z" fill="black"/>
<path d="M59.9335 40.3984C64.4674 43.3322 65.2918 49.9755 61.7519 55.2368C58.2121 60.4981 51.6657 62.3892 47.1318 59.4555C42.5979 56.5218 41.7735 49.8785 45.3134 44.6172C48.8532 39.3559 55.3996 37.4647 59.9335 40.3984Z" fill="black"/>
<path d="M72.2018 39.8651C67.6678 42.7988 66.8435 49.4422 70.3833 54.7035C73.9232 59.9648 80.4695 61.8559 85.0035 58.9222C89.5374 55.9885 90.3618 49.3452 86.8219 44.0839C83.3063 38.8226 76.7357 36.9314 72.2018 39.8651Z" fill="black"/>
<path d="M37.2153 45.1992C42.1129 43.9141 38.864 65.2018 34.8877 63.4561C30.4993 59.9648 29.0688 49.7816 37.2153 45.1992Z" fill="black"/>
<path d="M93.9259 44.9324C89.0283 43.6474 92.2772 64.9351 96.2535 63.1894C100.642 59.698 102.072 49.5149 93.9259 44.9324Z" fill="black"/>
<path d="M77.2449 29.0757C85.7066 27.6695 92.7621 32.6156 92.4712 41.6592C92.2045 45.1264 74.1415 29.5849 77.2449 29.0757Z" fill="black"/>
<path d="M53.8478 28.8091C45.3861 27.4029 38.3306 32.349 38.6216 41.3926C38.9125 44.8598 56.9755 29.3183 53.8478 28.8091Z" fill="black"/>
<path d="M66.0191 26.6997C60.9761 26.5785 56.1269 30.3851 56.1027 32.6157C56.0784 35.3069 60.1032 38.0709 66.0434 38.1437C72.129 38.1922 76.0083 35.9373 76.0326 33.1491C76.0568 29.9971 70.5046 26.6512 66.0191 26.6997Z" fill="black"/>
<path d="M66.3343 81.9555C70.747 81.7616 76.663 83.3618 76.663 85.4469C76.7357 87.4835 71.3047 92.1144 66.0434 92.0175C60.5881 92.2599 55.2541 87.629 55.3268 86.0288C55.2298 83.7012 61.9459 81.8585 66.3343 81.9555Z" fill="black"/>
<path d="M50.0655 69.4932C53.1932 73.227 54.6237 79.7491 52.0052 81.6887C49.5321 83.1677 43.5192 82.5616 39.2277 76.5002C36.3425 71.4328 36.7062 66.2685 38.7428 64.741C41.7735 62.9226 46.4529 65.3714 50.0655 69.4932Z" fill="black"/>
<path d="M81.9728 68.3053C78.5784 72.2331 76.6872 79.3613 79.1603 81.6646C81.5364 83.4588 87.8887 83.1921 92.5681 76.7912C95.9868 72.4755 94.823 65.2746 92.8833 63.3834C90.0223 61.1528 85.8521 63.9895 81.9728 68.3053Z" fill="black"/>
</svg>
