<svg width="131" height="96" viewBox="0 0 131 96" fill="none" xmlns="http://www.w3.org/2000/svg">
<path d="M82.6388 54.8849C89.5888 54.8849 99.6444 53.4515 99.6444 45.1849C99.6651 44.5469 99.6073 43.9087 99.4721 43.2849L95.3333 25.3071C94.3777 21.3515 93.5388 19.5571 86.5944 16.0849C81.2055 13.3293 69.4666 8.7793 65.9944 8.7793C62.761 8.7793 61.8221 12.946 57.9666 12.946C54.2555 12.946 51.4999 9.83485 48.0277 9.83485C44.6944 9.83485 42.5221 12.1071 40.8444 16.7793C40.8444 16.7793 36.1721 29.9571 35.5721 31.8682C35.4768 32.2191 35.4356 32.5826 35.4499 32.946C35.4499 38.0682 55.6166 54.8626 82.6388 54.8626V54.8849ZM100.711 48.5404C101.672 53.0904 101.672 53.5682 101.672 54.1682C101.672 61.946 92.9277 66.2626 81.4333 66.2626C55.4555 66.2793 32.6999 51.0571 32.6999 40.996C32.6984 39.5955 32.9839 38.2096 33.5388 36.9237C24.1944 37.3904 12.0999 39.0571 12.0999 49.7349C12.0999 67.2237 53.5388 88.7793 86.3499 88.7793C111.505 88.7793 117.85 77.4015 117.85 68.4182C117.85 61.3515 111.739 53.3293 100.722 48.5404" fill="black"/>
</svg>
