<svg width="131" height="96" viewBox="0 0 131 96" xmlns="http://www.w3.org/2000/svg">
<style>
  @media (prefers-color-scheme: dark) {
    svg { fill: #ffffff; }
  }
    @media (prefers-color-scheme: light) {
    svg { fill: #171717; }
  }
  svg {
    margin: 15px;
    min-width: 15%;
    height: auto;
  }
</style>
<path fill-rule="evenodd" clip-rule="evenodd" d="M104.695 74.4485C109.914 66.6372 112.7 57.4536 112.7 48.059C112.7 35.4612 107.695 23.3794 98.7874 14.4714C89.8794 5.56341 77.7976 0.55896 65.1998 0.55896C55.8052 0.55896 46.6216 3.34479 38.8103 8.56415C30.9989 13.7835 24.9107 21.202 21.3156 29.8815C17.7204 38.561 16.7798 48.1117 18.6125 57.3257C20.4453 66.5398 24.9693 75.0035 31.6123 81.6465C38.2553 88.2895 46.719 92.8135 55.9331 94.6463C65.1472 96.479 74.6978 95.5384 83.3773 91.9432C92.0568 88.3481 99.4753 82.2599 104.695 74.4485ZM29.3813 42.793C30.4228 42.0971 31.6473 41.7256 32.8999 41.7256C34.5796 41.7256 36.1905 42.3929 37.3782 43.5806C38.5659 44.7684 39.2332 46.3793 39.2332 48.059C39.2332 49.3116 38.8618 50.5361 38.1658 51.5776C37.4699 52.6191 36.4808 53.4308 35.3235 53.9102C34.1663 54.3896 32.8928 54.515 31.6643 54.2706C30.4357 54.0262 29.3073 53.423 28.4215 52.5373C27.5358 51.6516 26.9326 50.5231 26.6882 49.2945C26.4439 48.066 26.5693 46.7926 27.0486 45.6353C27.528 44.478 28.3397 43.4889 29.3813 42.793ZM75.6751 73.2293C76.2271 72.1054 77.0999 71.1703 78.1832 70.5423C78.9035 70.1247 79.699 69.8533 80.5243 69.7434C81.3497 69.6336 82.1885 69.6876 82.9929 69.9023C83.7974 70.117 84.5515 70.4882 85.2124 70.9947C85.8732 71.5012 86.4276 72.133 86.844 72.854C87.4703 73.9383 87.7611 75.1839 87.6796 76.4334C87.5981 77.6829 87.1481 78.8803 86.3864 79.8741C85.6247 80.868 84.5855 81.6137 83.4 82.0171C82.2146 82.4205 80.9362 82.4635 79.7264 82.1406C78.5166 81.8176 77.4297 81.1434 76.6029 80.2029C75.7762 79.2624 75.2468 78.098 75.0817 76.8568C74.9165 75.6155 75.123 74.3532 75.6751 73.2293ZM48.7772 39.513C47.3989 42.151 46.6777 45.0826 46.6749 48.059C46.6764 51.0355 47.397 53.9677 48.7754 56.6059C50.1537 59.2441 52.1491 61.5102 54.5915 63.2115L49.9524 70.9856C44.3096 67.2298 40.2505 61.5246 38.5524 54.9623C39.5808 54.1296 40.4102 53.0776 40.9799 51.8832C41.5497 50.6888 41.8453 49.3823 41.8453 48.059C41.8453 46.7357 41.5497 45.4291 40.9799 44.2347C40.4102 43.0403 39.5808 41.9883 38.5524 41.1556C40.2641 34.5997 44.3201 28.8989 49.9524 25.1323L54.5915 32.9065C52.15 34.6087 50.1554 36.875 48.7772 39.513ZM77.7195 34.4153C74.3043 31.2786 69.8369 29.5368 65.1999 29.534C62.5017 29.5356 59.837 30.1302 57.394 31.2756L52.9924 23.359C59.0756 20.383 66.0403 19.7462 72.5624 21.5698C72.7727 22.8732 73.2703 24.1134 74.0193 25.2006C74.7683 26.2878 75.7498 27.1947 76.8927 27.8556C78.0356 28.5164 79.3112 28.9147 80.6271 29.0215C81.943 29.1283 83.2662 28.941 84.5007 28.4731C89.3375 33.2204 92.2523 39.5856 92.6865 46.349L83.6457 46.4756C83.2494 41.8555 81.1347 37.552 77.7195 34.4153ZM57.394 64.8581C59.8382 65.9981 62.5029 66.5872 65.1999 66.584C69.8369 66.5811 74.3043 64.8393 77.7195 61.7026C81.1347 58.5659 83.2494 54.2624 83.6457 49.6423L92.6865 49.8481C92.2523 56.6115 89.3375 62.9767 84.5007 67.724C83.2662 67.2561 81.943 67.0687 80.6271 67.1756C79.3112 67.2824 78.0356 67.6807 76.8927 68.3415C75.7498 69.0024 74.7683 69.9093 74.0193 70.9965C73.2703 72.0837 72.7727 73.3239 72.5624 74.6273C66.0326 76.4312 59.0676 75.7719 52.9924 72.7748L57.394 64.8581ZM81.7637 26.4035C80.5146 26.4875 79.2687 26.1994 78.1832 25.5756C77.4609 25.1606 76.8276 24.6071 76.3195 23.9468C75.8115 23.2866 75.4387 22.5326 75.2225 21.7281C75.0063 20.9236 74.9509 20.0843 75.0596 19.2584C75.1682 18.4324 75.4388 17.636 75.8557 16.9148C76.4823 15.8309 77.416 14.9571 78.5389 14.4036C79.6619 13.8502 80.9236 13.6419 82.1649 13.8052C83.4061 13.9685 84.5711 14.496 85.5127 15.321C86.4543 16.1461 87.1302 17.2317 87.4551 18.4407C87.7801 19.6498 87.7393 20.928 87.3382 22.1139C86.937 23.2998 86.1934 24.3402 85.2012 25.1037C84.209 25.8672 83.0128 26.3195 81.7637 26.4035Z"/>
</svg>
